<svg width="300" height="60" viewBox="0 0 300 60" fill="none" xmlns="http://www.w3.org/2000/svg">
<g clip-path="url(#clip0_8_471)">
<path fill-rule="evenodd" clip-rule="evenodd" d="M41.8725 48.438C44.8751 48.438 46.9826 46.9067 46.9826 44.1789V44.1398C46.9826 41.7453 45.3915 40.7442 42.5686 40.0181C40.1644 39.4099 39.5677 39.1157 39.5677 38.2124V38.1735C39.5677 37.5062 40.1836 36.9762 41.356 36.9762C42.5302 36.9762 43.7428 37.4863 44.9745 38.3297L46.5657 36.0539C45.1542 34.9347 43.4235 34.3058 41.3962 34.3058C38.5541 34.3058 36.5268 35.955 36.5268 38.4477V38.4866C36.5268 41.2153 38.3342 41.9804 41.1379 42.6868C43.4636 43.2758 43.9417 43.668 43.9417 44.434V44.4731C43.9417 45.2782 43.1862 45.7692 41.9335 45.7692C40.3424 45.7692 39.0304 45.1211 37.7794 44.1L35.9685 46.2395C37.6381 47.7118 39.7666 48.438 41.8725 48.438ZM32.4564 48.2411H35.4974V34.5027H32.1982L28.5396 40.3114L24.881 34.5027H21.5818V48.2411H24.5827V39.3301L28.4594 45.1395H28.5396L32.4564 39.2719V48.2411ZM21.5469 52.6036H35.4625V49.9868H21.5469V52.6036ZM12 34.5035V3.8845H65V56.2083H12V43.8377H14.3012L17.2794 48.2308H20.8543L17.4591 43.3284C19.2265 42.6811 20.439 41.2885 20.439 39.0726V39.0335C20.439 37.7391 20.0203 36.6605 19.2474 35.8961C18.3332 34.9937 16.9619 34.5035 15.1945 34.5035H12ZM17.3405 39.1906V39.2297C17.3405 40.3872 16.4856 41.1707 14.9956 41.1707H12V37.2298H14.9363C16.4263 37.2298 17.3405 37.8962 17.3405 39.1906Z" fill="#D7D7DB"/>
</g>
<g clip-path="url(#clip1_8_471)">
<path d="M165 36.0501H165.831C165.92 36.7174 166.13 37.2957 166.463 37.7851C166.818 38.2522 167.239 38.6526 167.726 38.9863C168.236 39.2977 168.79 39.5312 169.389 39.6869C169.987 39.8204 170.597 39.8871 171.218 39.8871C171.838 39.8871 172.437 39.7981 173.013 39.6202C173.59 39.42 174.099 39.142 174.543 38.7861C174.986 38.4302 175.341 37.9964 175.607 37.4848C175.895 36.951 176.039 36.3504 176.039 35.6831C176.039 34.9935 175.851 34.393 175.474 33.8814C175.097 33.3475 174.631 32.8693 174.077 32.4467C173.523 32.024 172.925 31.657 172.282 31.3456C171.639 31.012 171.063 30.7117 170.553 30.4448C170.021 30.1778 169.489 29.8998 168.957 29.6106C168.425 29.3215 167.915 28.9878 167.427 28.6097C166.651 27.9868 166.097 27.3418 165.765 26.6745C165.432 25.9849 165.266 25.1397 165.266 24.1387C165.266 23.0488 165.477 22.1479 165.898 21.4361C166.341 20.7021 166.917 20.1238 167.627 19.7011C168.336 19.2563 169.134 18.9449 170.021 18.7669C170.907 18.589 171.816 18.5 172.747 18.5C173.634 18.5 174.498 18.5556 175.341 18.6668C176.183 18.7558 177.036 18.8893 177.901 19.0672L178.134 23.6382H177.302C177.081 22.3036 176.482 21.336 175.507 20.7355C174.532 20.1127 173.401 19.8012 172.115 19.8012C171.583 19.8012 171.063 19.8902 170.553 20.0682C170.065 20.2239 169.622 20.4574 169.223 20.7688C168.846 21.0802 168.536 21.4584 168.292 21.9033C168.048 22.3481 167.926 22.8597 167.926 23.4381C167.926 24.0386 168.07 24.5614 168.358 25.0062C168.646 25.4511 169.012 25.8515 169.455 26.2074C169.899 26.5633 170.375 26.8747 170.885 27.1416C171.417 27.3863 171.905 27.6198 172.348 27.8423C172.769 28.0425 173.179 28.2426 173.578 28.4428C173.977 28.6208 174.376 28.8321 174.775 29.0768C175.396 29.4549 175.972 29.8331 176.504 30.2112C177.059 30.5893 177.524 31.012 177.901 31.4791C178.3 31.9462 178.61 32.48 178.832 33.0806C179.054 33.6589 179.164 34.3485 179.164 35.1493C179.164 36.3059 178.921 37.2846 178.433 38.0854C177.945 38.8862 177.313 39.5312 176.538 40.0206C175.762 40.5099 174.886 40.8547 173.911 41.0549C172.936 41.2773 171.949 41.3885 170.952 41.3885C169.976 41.3885 169.012 41.3218 168.059 41.1884C167.128 41.0549 166.186 40.9103 165.233 40.7546L165 36.0501Z" fill="#D7D7DB"/>
<path d="M191.137 41.3885C189.408 41.3885 187.978 41.0771 186.848 40.4543C185.74 39.8093 184.864 38.964 184.221 37.9186C183.601 36.8509 183.168 35.6275 182.924 34.2484C182.681 32.8693 182.559 31.4346 182.559 29.9443C182.559 28.454 182.681 27.0193 182.924 25.6402C183.168 24.2611 183.601 23.0488 184.221 22.0033C184.864 20.9357 185.74 20.0904 186.848 19.4676C187.978 18.8225 189.408 18.5 191.137 18.5C192.866 18.5 194.285 18.8225 195.393 19.4676C196.524 20.0904 197.399 20.9357 198.02 22.0033C198.663 23.0488 199.106 24.2611 199.35 25.6402C199.594 27.0193 199.716 28.454 199.716 29.9443C199.716 31.4346 199.594 32.8693 199.35 34.2484C199.106 35.6275 198.663 36.8509 198.02 37.9186C197.399 38.964 196.524 39.8093 195.393 40.4543C194.285 41.0771 192.866 41.3885 191.137 41.3885ZM191.137 40.0873C192.445 40.0873 193.454 39.7425 194.163 39.053C194.872 38.3412 195.393 37.4737 195.726 36.4505C196.058 35.405 196.258 34.304 196.324 33.1473C196.391 31.9684 196.424 30.9007 196.424 29.9443C196.424 28.9878 196.391 27.9312 196.324 26.7746C196.258 25.5957 196.058 24.4946 195.726 23.4714C195.393 22.426 194.872 21.5585 194.163 20.8689C193.454 20.1571 192.445 19.8012 191.137 19.8012C189.829 19.8012 188.821 20.1571 188.111 20.8689C187.402 21.5585 186.881 22.426 186.549 23.4714C186.216 24.4946 186.017 25.5957 185.95 26.7746C185.884 27.9312 185.85 28.9878 185.85 29.9443C185.85 30.9007 185.884 31.9684 185.95 33.1473C186.017 34.304 186.216 35.405 186.549 36.4505C186.881 37.4737 187.402 38.3412 188.111 39.053C188.821 39.7425 189.829 40.0873 191.137 40.0873Z" fill="#D7D7DB"/>
<path d="M215.904 41.0549L209.254 29.7774H207.891V37.6516C207.891 38.7861 208.113 39.5312 208.556 39.8871C209.022 40.2208 209.775 40.3876 210.817 40.3876V41.0549H202.039V40.3876C203.081 40.4098 203.824 40.243 204.267 39.8871C204.71 39.5312 204.932 38.7861 204.932 37.6516V22.2369C204.932 21.1025 204.71 20.3685 204.267 20.0348C203.824 19.6789 203.081 19.501 202.039 19.501V18.8337H210.85C211.715 18.8337 212.579 18.9004 213.444 19.0338C214.331 19.1673 215.129 19.4231 215.838 19.8012C216.569 20.1794 217.157 20.7021 217.6 21.3694C218.066 22.0145 218.298 22.8708 218.298 23.9385C218.298 24.8505 218.143 25.6402 217.833 26.3075C217.545 26.9748 217.135 27.542 216.603 28.0091C216.093 28.454 215.483 28.8099 214.774 29.0768C214.065 29.3215 213.3 29.4772 212.48 29.5439L216.869 37.0177C217.112 37.4181 217.356 37.8296 217.6 38.2522C217.866 38.6526 218.154 39.0085 218.465 39.3199C218.775 39.6313 219.13 39.8871 219.529 40.0873C219.95 40.2875 220.426 40.3876 220.958 40.3876V41.0549H215.904ZM207.891 28.4762C208.733 28.4762 209.587 28.4428 210.451 28.3761C211.316 28.3094 212.092 28.1314 212.779 27.8423C213.488 27.5531 214.065 27.1082 214.508 26.5077C214.951 25.8848 215.173 25.0285 215.173 23.9385C215.173 23.2045 215.018 22.5928 214.707 22.1034C214.419 21.6141 214.031 21.2248 213.544 20.9357C213.056 20.6465 212.502 20.4463 211.881 20.3351C211.283 20.2016 210.673 20.1349 210.052 20.1349C209.565 20.1349 209.177 20.1683 208.889 20.235C208.6 20.2795 208.379 20.3796 208.224 20.5353C208.091 20.691 208.002 20.9134 207.958 21.2026C207.913 21.4917 207.891 21.8699 207.891 22.337V28.4762Z" fill="#D7D7DB"/>
<path d="M235.813 41.0549V40.3876C235.991 40.3876 236.212 40.3765 236.478 40.3542C236.744 40.332 236.999 40.2875 237.243 40.2208C237.509 40.1318 237.731 40.0206 237.908 39.8871C238.085 39.7314 238.174 39.5312 238.174 39.2865C238.174 39.0641 238.141 38.8305 238.074 38.5859C238.03 38.3189 237.964 38.0854 237.875 37.8852L236.312 33.6812H227.966L226.537 37.6516C226.448 37.8963 226.359 38.1632 226.271 38.4524C226.182 38.7193 226.138 38.9751 226.138 39.2198C226.138 39.509 226.215 39.7314 226.37 39.8871C226.548 40.0428 226.758 40.1652 227.002 40.2541C227.268 40.3209 227.534 40.3653 227.8 40.3876C228.066 40.3876 228.299 40.3876 228.498 40.3876V41.0549H220.984V40.3876C221.671 40.3876 222.225 40.2986 222.647 40.1207C223.068 39.9427 223.411 39.698 223.677 39.3866C223.965 39.0752 224.198 38.6971 224.376 38.2522C224.553 37.7851 224.752 37.2624 224.974 36.684L231.857 18.5H233.719L240.635 36.951C240.812 37.4181 241 37.863 241.2 38.2856C241.422 38.7082 241.676 39.0752 241.965 39.3866C242.253 39.698 242.596 39.9427 242.995 40.1207C243.394 40.2986 243.882 40.3876 244.458 40.3876V41.0549H235.813ZM232.156 22.2035L228.432 32.3799H235.847L232.156 22.2035Z" fill="#D7D7DB"/>
<path d="M250.55 41.3885L243.601 22.5038C243.246 21.5474 242.803 20.8133 242.271 20.3017C241.761 19.7679 240.974 19.501 239.91 19.501V18.8337H248.555V19.501C248.312 19.501 248.057 19.5121 247.791 19.5343C247.525 19.5566 247.281 19.6122 247.059 19.7011C246.837 19.7901 246.649 19.9236 246.494 20.1015C246.361 20.2795 246.294 20.5242 246.294 20.8356C246.294 21.147 246.339 21.4695 246.427 21.8032C246.538 22.1146 246.649 22.4149 246.76 22.704L252.047 37.2513L257.699 21.9033C257.766 21.7031 257.832 21.4917 257.899 21.2693C257.987 21.0246 258.032 20.8022 258.032 20.602C258.032 20.3351 257.932 20.1349 257.732 20.0014C257.555 19.8457 257.333 19.7345 257.067 19.6678C256.823 19.5788 256.557 19.5343 256.269 19.5343C256.003 19.5121 255.782 19.501 255.604 19.501V18.8337H263.086V19.501C262.531 19.501 262.055 19.6011 261.656 19.8012C261.257 20.0014 260.902 20.2684 260.592 20.602C260.304 20.9357 260.049 21.3138 259.827 21.7364C259.628 22.1591 259.45 22.6039 259.295 23.071L252.545 41.3885H250.55Z" fill="#D7D7DB"/>
<path d="M263.152 41.0549V40.3876C264.194 40.3876 264.936 40.2208 265.379 39.8871C265.823 39.5312 266.044 38.7861 266.044 37.6516V22.2369C266.044 21.1025 265.823 20.3685 265.379 20.0348C264.936 19.6789 264.194 19.501 263.152 19.501V18.8337H271.896V19.501C270.855 19.501 270.112 19.6789 269.669 20.0348C269.225 20.3907 269.004 21.1247 269.004 22.2369V37.6516C269.004 38.7638 269.225 39.4979 269.669 39.8537C270.112 40.2096 270.855 40.3876 271.896 40.3876V41.0549H263.152Z" fill="#D7D7DB"/>
<path d="M286.954 41.0549V40.3876C287.132 40.3876 287.353 40.3765 287.619 40.3542C287.885 40.332 288.14 40.2875 288.384 40.2208C288.65 40.1318 288.872 40.0206 289.049 39.8871C289.226 39.7314 289.315 39.5312 289.315 39.2865C289.315 39.0641 289.282 38.8305 289.215 38.5859C289.171 38.3189 289.105 38.0854 289.016 37.8852L287.453 33.6812H279.107L277.678 37.6516C277.589 37.8963 277.5 38.1632 277.412 38.4524C277.323 38.7193 277.279 38.9751 277.279 39.2198C277.279 39.509 277.356 39.7314 277.511 39.8871C277.689 40.0428 277.899 40.1652 278.143 40.2541C278.409 40.3209 278.675 40.3653 278.941 40.3876C279.207 40.3876 279.44 40.3876 279.639 40.3876V41.0549H272.125V40.3876C272.812 40.3876 273.366 40.2986 273.788 40.1207C274.209 39.9427 274.552 39.698 274.818 39.3866C275.106 39.0752 275.339 38.6971 275.517 38.2522C275.694 37.7851 275.893 37.2624 276.115 36.684L282.998 18.5H284.86L291.776 36.951C291.953 37.4181 292.141 37.863 292.341 38.2856C292.563 38.7082 292.817 39.0752 293.106 39.3866C293.394 39.698 293.737 39.9427 294.136 40.1207C294.535 40.2986 295.023 40.3876 295.599 40.3876V41.0549H286.954ZM283.297 22.2035L279.573 32.3799H286.988L283.297 22.2035Z" fill="#D7D7DB"/>
</g>
<defs>
<clipPath id="clip0_8_471">
<rect width="77" height="53" fill="white" transform="translate(0 3.5)"/>
</clipPath>
<clipPath id="clip1_8_471">
<rect width="140" height="22.8885" fill="white" transform="translate(160 18.5557)"/>
</clipPath>
</defs>
</svg>
