<svg width="300" height="60" viewBox="0 0 300 60" fill="none" xmlns="http://www.w3.org/2000/svg">
<g clip-path="url(#clip0_8_261)">
<path d="M42.5645 27.2573C42.5889 27.2961 42.5857 27.3341 42.562 27.3717C42.5524 27.3797 42.5417 27.3957 42.5337 27.3943C42.1191 27.3178 41.6643 27.3893 41.3236 27.0429C41.0071 26.7213 40.7396 26.3431 40.2825 26.1809C40.1359 26.1285 40.0677 25.9488 39.9643 25.8275C39.8195 25.659 39.6909 25.4781 39.5626 25.2975C39.0465 24.573 38.7861 24.5662 38.2861 25.2829C38.1108 25.5335 37.8635 25.7351 37.764 26.0381C37.6928 26.2996 37.4931 26.4906 37.3835 26.7312C37.3691 26.7598 37.3518 26.7872 37.334 26.8137C37.275 26.8894 37.2405 26.9761 37.2213 27.07C37.1065 27.3427 36.9394 27.5918 36.8622 27.8808C36.8538 27.9134 36.8419 27.9445 36.8281 27.9748C36.752 28.0867 36.7153 28.2134 36.6893 28.3443C36.6709 28.4122 36.6585 28.4811 36.6489 28.551C36.5384 29.025 36.3122 29.4692 36.2907 29.9654C36.291 30.025 36.2896 30.0841 36.2865 30.1437C36.2095 30.4793 36.0926 30.8095 36.1494 31.1632C36.1517 31.372 36.1426 31.5805 36.1395 31.789C36.0593 32.0523 36.1242 32.3145 36.1474 32.577C36.1401 33.0543 36.1155 33.5328 36.2537 33.9987C36.3387 34.4972 36.4253 34.9958 36.6087 35.4707C36.7085 35.7802 36.81 36.0895 36.9714 36.3744C37.0505 36.6379 37.1967 36.8689 37.3335 37.104C37.3498 37.1334 37.3632 37.1642 37.375 37.1954C37.4304 37.407 37.5571 37.5741 37.7106 37.7241C37.8972 38.0088 38.1137 38.2703 38.3477 38.5162C38.4415 38.6146 38.5227 38.7158 38.5444 38.8541C39.3792 39.6732 40.3602 40.2348 41.5012 40.4972C41.8231 40.5713 42.1597 40.6088 42.4902 40.6111C43.2786 40.6164 44.0585 40.5501 44.8296 40.3479C45.8679 40.0763 46.8015 39.6059 47.6634 38.98C49.0702 37.9586 50.1514 36.6433 51.0574 35.1759C52.0687 33.5387 52.8257 31.7845 53.4612 29.9703C53.9247 28.6464 54.2645 27.2869 54.6859 25.9515C55.5761 23.1306 56.7474 20.4466 58.5449 18.0679C60.1641 15.9253 62.1625 14.2273 64.4994 12.9109C66.3074 11.8925 68.2134 11.1225 70.1948 10.517C71.7973 10.0275 73.4286 9.66594 75.0661 9.32553C75.5579 9.22328 75.6442 9.26932 75.8643 9.72469C76.197 10.4116 76.3302 11.1507 76.3878 11.9012C76.4518 12.7304 76.3697 13.5546 76.1481 14.3545C75.9803 14.9602 75.7253 15.5324 75.3104 16.0222C75.1673 16.1907 75.0002 16.2911 74.7902 16.3411C73.3056 16.6939 71.8352 17.0973 70.393 17.5981C68.9466 18.1002 67.5488 18.7017 66.2855 19.5842C65.4201 20.1891 64.6814 20.9227 64.044 21.7619C63.9705 21.8588 63.919 21.9758 63.8096 22.0434C63.6811 22.1907 63.5385 22.3286 63.48 22.524C63.0993 23.0234 62.7547 23.5495 62.3745 24.0489C62.3013 24.1149 62.2524 24.1968 62.2188 24.289C62.0969 24.5456 61.8934 24.7511 61.7697 25.0066C61.6218 25.1587 61.5124 25.3387 61.4069 25.5211C61.3569 25.5822 61.3041 25.6418 61.2719 25.7158C61.1896 25.858 61.1063 25.9994 61.0307 26.1452C60.7749 26.5313 60.5223 26.9192 60.2963 27.324C59.9176 27.907 59.5408 28.4914 59.1829 29.0873C58.8796 29.4866 58.6335 29.9254 58.3278 30.3229C58.2671 30.3929 58.208 30.4646 58.1633 30.547C58.1339 30.6012 58.1057 30.6562 58.0765 30.7109C58.0616 30.7394 58.0444 30.7659 58.0259 30.7921C57.8976 30.9602 57.8018 31.1492 57.6837 31.3238C57.5222 31.4695 57.4327 31.6664 57.3147 31.8433C56.9188 32.3083 56.5948 32.8269 56.22 33.3072C56.0682 33.437 55.9826 33.6207 55.8477 33.7642C55.7095 33.8796 55.6013 34.0204 55.5065 34.1725C55.4899 34.2016 55.4709 34.2287 55.4509 34.2556C55.1708 34.5722 54.8903 34.8884 54.5949 35.191C54.2128 35.5516 53.8999 35.9819 53.4809 36.3061C53.0417 36.6866 52.6406 37.1122 52.1566 37.4413C51.7298 37.7562 51.3123 38.0843 50.8643 38.3701C50.5332 38.4959 50.2884 38.7726 49.955 38.8936C49.8718 38.9287 49.7828 38.9496 49.7022 38.9905C49.6785 39.0052 49.6539 39.0188 49.6301 39.0333C49.6084 39.0496 49.5857 39.0648 49.5629 39.0804C49.5411 39.0969 49.5179 39.111 49.4942 39.1246C49.4712 39.1398 49.4475 39.1534 49.4241 39.1681C49.4015 39.1853 49.3783 39.2011 49.3549 39.2172C49.3181 39.2438 49.2791 39.265 49.2369 39.2803C49.1918 39.2969 49.1459 39.3096 49.0996 39.3218C48.816 39.4377 48.5622 39.6209 48.2572 39.6881C47.827 39.8728 47.3824 40.0158 46.9386 40.1619C46.8241 40.1995 46.6839 40.2495 46.6828 40.3959C46.6819 40.5254 46.817 40.5566 46.9137 40.6083C48.045 41.2126 49.1985 41.7777 50.399 42.2249C51.1687 42.5115 51.9206 42.8544 52.7194 43.0615C52.8446 43.0941 52.9569 43.1438 52.9982 43.2761C53.045 43.4264 52.8794 43.4398 52.8259 43.5257C52.7732 43.6107 52.6601 43.6379 52.6307 43.7414L52.6351 43.7374C52.6005 43.7541 52.5755 43.7812 52.5535 43.8118L52.5552 43.8095C52.4322 43.9101 52.274 43.9675 52.1835 44.1088C51.5689 44.6631 50.8697 45.0945 50.1539 45.5004C48.9925 46.1593 47.7558 46.6385 46.4603 46.9491C44.9449 47.3124 43.406 47.4661 41.8435 47.3751C39.1971 47.2207 36.8778 46.2577 34.8341 44.593C34.8155 44.5778 34.8027 44.556 34.7869 44.537C34.5715 44.5274 34.403 44.4277 34.2669 44.2666C34.2417 44.2442 34.2185 44.2205 34.1959 44.1965C34.0415 44.0274 33.875 43.8705 33.7133 43.7089C33.5935 43.5805 33.4658 43.4592 33.3444 43.332C33.302 43.2851 33.2667 43.2331 33.2357 43.178C33.1893 43.08 33.1197 42.9999 33.0375 42.9292C32.9369 42.8267 32.8501 42.7107 32.7367 42.6203C32.7124 42.5985 32.6915 42.5739 32.6736 42.5462C32.6517 42.5038 32.6378 42.4581 32.6254 42.4119C32.6084 42.3334 32.5598 42.2763 32.4987 42.2274C32.4275 42.1621 32.3531 42.0999 32.2882 42.0281C31.9416 41.5688 31.6498 41.0736 31.3423 40.5887C31.2635 40.3937 31.1733 40.2038 31.0642 40.0234C31.0452 39.9965 31.0291 39.9686 31.0142 39.9395C30.9483 39.7738 30.8685 39.6142 30.7951 39.4519C30.7707 39.3379 30.7168 39.239 30.6435 39.1494C30.5402 39.0103 30.6512 38.839 30.5735 38.6963C30.2131 37.9113 29.9671 37.0879 29.7478 36.2555C29.499 35.3116 29.3532 34.3486 29.2771 33.3793C29.2019 32.4205 29.2048 31.4575 29.3068 30.4977C29.4238 29.393 29.6296 28.3069 29.9807 27.2516C30.6975 25.0974 31.8245 23.2066 33.5836 21.7354C34.2846 21.149 35.0551 20.6645 35.9397 20.4003C37.8363 19.8337 39.4988 20.2236 40.9033 21.6437C41.8038 22.5542 42.2468 23.6806 42.4766 24.9122C42.5357 25.2271 42.6072 25.5398 42.5643 25.8636C42.6109 26.3281 42.6107 26.7928 42.5645 27.2573Z" fill="#D7D7DB"/>
<path d="M15.3222 48.315C16.337 48.3594 17.3452 48.2753 18.3362 48.0704C19.373 47.8559 20.37 47.5009 21.3306 47.0531C22.145 46.6735 22.9314 46.2421 23.6786 45.7407C23.8003 45.659 23.9294 45.5886 24.0549 45.5129C24.4512 45.3497 24.4469 45.352 24.6461 45.7057C25.3627 46.9779 26.2466 48.1069 27.4035 49.018C27.7808 49.315 28.1651 49.5921 28.573 49.8423C28.8741 50.0271 28.8788 50.1379 28.6398 50.3999C27.9137 51.0141 27.1079 51.5133 26.2969 52.0021C24.6449 52.9979 22.8922 53.7634 21.0326 54.2863C20.011 54.5735 18.9744 54.762 17.9222 54.8961C16.8512 55.0323 15.7782 55.019 14.7086 54.9687C13.7001 54.9215 12.7041 54.7301 11.7252 54.4709C9.65866 53.924 7.73839 53.0575 5.9992 51.8094C3.72493 50.1769 1.97813 48.1162 0.952239 45.4879C0.107876 43.325 -0.176228 41.0908 0.105005 38.7785C0.327938 36.9446 0.860703 35.2187 1.78004 33.6176C2.91624 31.6394 4.46308 30.069 6.49476 29.0082C7.31196 28.5816 8.17796 28.2841 9.08063 28.0633C10.2389 27.78 11.4075 27.7402 12.5703 27.8561C14.3295 28.0316 15.9698 28.5917 17.4005 29.6746C18.8357 30.7607 19.8195 32.1594 20.3728 33.8751C20.6712 34.8003 20.7692 35.7518 20.8323 36.7085C20.8631 37.1755 20.7915 37.6439 20.7137 38.107C20.5126 38.2471 20.3029 38.3761 20.1374 38.5615C19.8728 38.8583 19.505 38.8834 19.1537 38.8902C18.7793 38.8972 18.422 38.9349 18.0835 39.1005C17.9939 39.1443 17.8933 39.1777 17.798 39.161C17.3127 39.0768 16.8168 39.2484 16.3355 39.0965C16.222 39.0607 16.1183 39.107 16.011 39.131C15.7526 39.189 15.5031 39.1833 15.2584 39.0565C14.9809 38.9126 14.6668 38.9035 14.3659 38.8554C13.9638 38.7912 13.85 38.6852 13.8047 38.2681C13.8171 37.7785 13.9172 37.2988 13.8245 36.7976C13.5028 35.0603 12.0546 34.3678 10.5042 34.7929C9.35954 35.1069 8.52766 35.8464 7.91186 36.8169C6.63819 38.8233 6.56498 40.935 7.47052 43.1034C7.76743 43.8143 8.17344 44.458 8.68864 45.0315C8.88982 45.3317 9.19104 45.5361 9.43087 45.7992C9.48431 45.8724 9.53301 45.9507 9.61593 45.9973C9.65601 46.0157 9.69654 46.0341 9.7364 46.0536C9.76312 46.068 9.78697 46.0859 9.80916 46.1065C9.86316 46.1611 9.92433 46.2065 9.98638 46.252C10.3833 46.5595 10.8055 46.8248 11.2692 47.0203C11.5774 47.2182 11.9336 47.3233 12.2412 47.5221C12.362 47.6111 12.5029 47.6371 12.6478 47.6521C13.2649 47.8491 13.8914 47.9984 14.5345 48.0874C14.8029 48.1244 15.0301 48.3367 15.3222 48.315Z" fill="#D7D7DB"/>
<path d="M37.1492 4.85605C37.7849 4.40654 38.5049 4.1677 39.2652 4.06314C41.2793 3.78665 42.9722 4.421 44.3459 5.91153C44.9839 6.60351 45.4008 7.42127 45.6256 8.32945C45.8788 9.35269 45.8763 10.3752 45.5164 11.3806C45.3361 11.7764 44.9418 11.8538 44.5959 11.8933C43.8996 11.9736 43.1808 12.0092 42.4958 11.8922C41.7036 11.7568 40.9346 11.4863 40.2297 11.0569C39.514 10.6211 38.8794 10.0797 38.3833 9.42899C37.6158 8.4222 37.0644 7.29175 37.0579 5.97988C37.0562 5.60622 36.9586 5.217 37.1492 4.85605Z" fill="#D7D7DB"/>
<path d="M13.8926 38.2293C13.9257 38.6632 14.0276 38.689 14.4392 38.752C14.724 38.7952 15.0466 38.7839 15.3062 38.9628C15.5555 39.1347 15.8169 39.1014 16.073 39.0005C16.1664 38.9637 16.2475 38.8945 16.3423 38.9662C16.5649 39.1344 16.8099 39.0652 17.0511 39.0448C17.0747 39.0429 17.1 39.0171 17.12 39.0219C17.6119 39.1378 18.0717 39.0117 18.5318 38.8526C18.6308 38.8184 18.7504 38.8458 18.8416 38.7647C18.867 38.7423 18.9263 38.7155 18.9377 38.726C19.122 38.8939 19.3158 38.7002 19.4766 38.7365C19.7678 38.8015 19.9038 38.6118 20.0799 38.4795C20.187 38.3989 20.2765 38.2943 20.3694 38.196C20.4671 38.0928 20.5916 38.1077 20.7136 38.107C20.6774 38.7178 20.5203 39.3034 20.3381 39.8835C20.2203 39.9853 20.2525 40.1382 20.2073 40.2651L20.2118 40.2589C20.1011 40.4771 19.9464 40.591 19.6844 40.5218C19.5277 40.4799 19.3646 40.5195 19.2113 40.565C18.2765 40.8434 17.3199 40.8016 16.3633 40.7682C16.2257 40.7632 16.0999 40.7117 15.9693 40.6778C15.6129 40.5848 15.2584 40.476 14.8812 40.5289C14.7562 40.5461 14.6307 40.5251 14.5235 40.4633C14.2935 40.3298 14.0437 40.2926 13.7856 40.256C13.3558 40.1953 13.2723 40.0333 13.422 39.6327C13.4648 39.5183 13.5113 39.4029 13.5075 39.2766C13.6242 38.9233 13.6116 38.5221 13.8926 38.2293Z" fill="#D7D7DB"/>
<path d="M37.6707 26.0392C37.6724 25.8758 37.7906 25.7775 37.8813 25.6647C38.1473 25.3331 38.3709 24.9679 38.692 24.6802C38.8023 24.5813 38.8718 24.5769 39.0063 24.6552C39.3798 24.8723 39.6265 25.2033 39.8567 25.5469C39.9734 25.721 40.1452 25.8482 40.2388 26.0401C40.2755 26.115 40.3519 26.1653 40.4437 26.1831C40.6973 26.2325 40.8665 26.403 41.0229 26.5933C41.1865 26.7928 41.3624 26.9832 41.5721 27.1343C41.6716 27.2061 41.7763 27.3178 41.9232 27.1818C41.9947 27.1156 42.0834 27.1713 42.1559 27.2273C42.2746 27.3196 42.4052 27.3838 42.562 27.3717C42.5996 27.7776 42.4998 28.1675 42.4226 28.5599C42.2646 28.8893 42.2947 29.2598 42.1934 29.6016L42.1965 29.5986C41.7451 29.7004 41.4255 29.4118 41.1125 29.1854C40.409 28.6768 39.7474 28.1122 39.1457 27.4818C38.8418 27.1635 38.5026 26.8746 38.3027 26.4706C38.1722 26.2063 37.9635 26.0629 37.6707 26.0392Z" fill="#D7D7DB"/>
<path d="M52.6307 43.7413C52.6406 43.5263 52.8808 43.4864 52.9546 43.3242C52.9261 43.2438 52.8681 43.1667 52.8025 43.1689C52.4167 43.182 52.1105 42.9451 51.7679 42.8326C51.4658 42.7337 51.1306 42.6811 50.8699 42.4668C50.842 42.4439 50.8075 42.4164 50.7741 42.4142C50.2308 42.3786 49.7961 42.0488 49.3067 41.8676C48.8265 41.6898 48.3717 41.4438 47.9095 41.2189C47.54 41.0384 47.1912 40.8157 46.8043 40.671C46.7583 40.6537 46.7132 40.632 46.672 40.6057C46.4634 40.4736 46.4544 40.368 46.6395 40.2094C46.6853 40.1701 46.7373 40.1331 46.7933 40.1127C47.2806 39.9355 47.7694 39.7622 48.2577 39.5878C48.4907 39.9545 48.8712 40.0986 49.2463 40.2629C50.1811 40.6722 51.1192 41.0752 52.0662 41.4528C52.413 41.5914 52.7723 41.7234 53.1477 41.7963C53.4831 41.8616 53.8015 41.9933 54.1068 42.1513C54.1642 42.2602 54.0635 42.3274 54.0378 42.4145C53.6232 42.9145 53.1519 43.3547 52.6307 43.7413Z" fill="#D7D7DB"/>
<path d="M13.5991 39.2704C13.6202 39.464 13.5375 39.6263 13.4506 39.7911C13.3593 39.9641 13.3865 40.0257 13.5601 40.1018C13.5824 40.1116 13.6069 40.1176 13.6312 40.1215C14.0031 40.1806 14.3792 40.2227 14.709 40.4307C14.7374 40.4486 14.7845 40.4593 14.8146 40.4488C15.1914 40.3194 15.5449 40.4669 15.8955 40.5559C16.1552 40.6221 16.4073 40.6795 16.6776 40.6795C17.2391 40.6798 17.7967 40.6956 18.3608 40.6325C18.702 40.5944 19.0138 40.4788 19.3445 40.4279C19.453 40.4113 19.5817 40.372 19.6709 40.4113C19.9072 40.5155 20.0565 40.3954 20.2118 40.2589C20.0696 40.7987 19.8685 41.3158 19.606 41.8085C19.5383 41.9176 19.4533 41.9812 19.3141 42.0009C17.5106 42.2584 15.7373 42.0716 13.9853 41.6275C13.5382 41.5142 13.0552 41.4961 12.6648 41.2027C12.6415 41.1725 12.6277 41.1374 12.6232 41.0993C12.6681 40.9664 12.7811 40.8627 12.791 40.7137C12.9715 40.2583 13.2379 39.8447 13.4341 39.397C13.4632 39.3301 13.5136 39.2726 13.5991 39.2704Z" fill="#D7D7DB"/>
<path d="M37.1492 4.85605C37.1503 5.20143 37.1507 5.54682 37.1529 5.89199C37.1554 6.31003 37.2634 6.71206 37.3275 7.12016C37.4152 7.67512 37.7934 8.08576 37.9262 8.60649C37.9452 8.6808 38.0342 8.73678 38.0907 8.80182C38.1388 8.85747 38.223 8.91036 38.2284 8.96998C38.2567 9.27805 38.5029 9.42446 38.6852 9.61593C38.9238 9.8658 39.1728 10.1052 39.4162 10.35C39.512 10.4466 39.6169 10.5286 39.7306 10.6049C40.2475 10.9532 40.7984 11.2395 41.3536 11.5191C41.4344 11.5598 41.5181 11.5604 41.6027 11.5727C41.854 11.6101 42.1171 11.5985 42.3311 11.7789C42.4094 11.8445 42.5199 11.8241 42.6183 11.8244C43.2226 11.8246 43.8269 11.8244 44.4316 11.8244C44.4687 11.8244 44.5088 11.8326 44.5421 11.8215C44.8819 11.7085 45.2451 11.6454 45.5164 11.3806C45.4535 11.7012 45.3356 11.9987 45.1518 12.2696C45.1049 12.3323 45.0535 12.3897 44.9819 12.4253C44.5914 12.661 44.1365 12.6449 43.7218 12.639C43.1282 12.6311 42.5275 12.6229 41.9385 12.414C41.4795 12.2512 41.0062 12.133 40.5483 11.9451C39.644 11.574 38.9368 10.9592 38.2641 10.2833C37.6551 9.67125 37.1887 8.95099 36.8939 8.15389C36.5808 7.30765 36.2757 6.43899 36.3592 5.50332C36.4174 5.37843 36.5496 5.32245 36.6272 5.21524C36.7707 5.0516 36.9483 4.93654 37.1492 4.85605Z" fill="#D7D7DB"/>
<path d="M52.1078 37.3672C52.598 37.052 52.9667 36.5915 53.4402 36.256C53.5107 36.5025 53.685 36.6212 53.92 36.7114C54.8021 37.0508 55.6841 37.3875 56.6112 37.5886C56.6836 37.604 56.7525 37.6295 56.8201 37.6594C57.2421 37.8475 57.2709 37.932 57.0451 38.3286C56.9299 38.5306 56.7802 38.7133 56.7039 38.9374C56.5934 39.1853 56.4501 39.4123 56.2638 39.611C56.2051 39.5143 56.1875 39.3973 56.0343 39.369C55.1258 39.2003 54.286 38.8066 53.4047 38.5451C53.0439 38.4379 52.6926 38.2791 52.3381 38.1411C51.8208 37.9394 51.7909 37.8268 52.1078 37.3672Z" fill="#D7D7DB"/>
<path d="M35.5945 6.26342C35.7573 6.01244 35.9383 5.77725 36.1838 5.5997C36.1958 5.61472 36.2077 5.62996 36.2198 5.64497C36.083 6.27866 36.2529 6.87171 36.4128 7.48177C36.8128 9.00818 37.738 10.1831 38.8757 11.2C39.6808 11.919 40.6628 12.3252 41.7062 12.6316C42.7064 12.9254 43.7012 12.8069 44.7027 12.8126C44.7429 12.821 44.7737 12.8425 44.7954 12.877C44.7606 12.9989 44.6942 13.0975 44.5856 13.166C44.4907 13.2095 44.4653 13.3084 44.4115 13.3847L44.4133 13.3825C44.2207 13.5608 43.9926 13.5893 43.7354 13.5972C42.6997 13.6295 41.7069 13.4265 40.7343 13.0964C39.2854 12.6045 38.0993 11.741 37.1608 10.5388C36.4493 9.6274 35.9445 8.60471 35.6212 7.49756C35.5295 7.18353 35.5728 6.83892 35.48 6.51871C35.4942 6.42286 35.5513 6.34623 35.5945 6.26342Z" fill="#D7D7DB"/>
<path d="M12.6461 41.067C12.6891 41.1694 12.7775 41.201 12.8766 41.2298C13.6654 41.4597 14.4584 41.6697 15.2692 41.8079C15.8363 41.9049 16.4121 41.9238 16.9815 42.0125C17.3618 42.0722 17.7598 42.0125 18.1499 42.0174C18.4565 42.0213 18.7538 41.9701 19.0513 41.9065C19.1338 41.889 19.2321 41.8695 19.3046 41.898C19.4406 41.9515 19.5098 41.8489 19.606 41.8085C19.5237 42.1022 19.3689 42.3611 19.219 42.6226C19.1279 42.6714 19.1313 42.7732 19.0922 42.8513L19.094 42.8484C18.9464 43.005 18.7543 43.0356 18.5529 43.0403C17.0086 43.0776 15.4757 42.9598 13.9786 42.577C13.4603 42.4445 12.9422 42.2901 12.4285 42.131C12.2906 42.0881 12.1392 42.0482 12.0795 41.8864C12.1207 41.5117 12.3005 41.2321 12.6461 41.067Z" fill="#D7D7DB"/>
<path d="M52.1078 37.3672C52.1044 37.3915 52.1051 37.4175 52.0964 37.4398C51.9322 37.8638 51.9305 37.8669 52.3392 38.0354C52.5202 38.1101 52.7047 38.1793 52.8928 38.2316C53.023 38.2677 53.1555 38.2822 53.2526 38.3935C53.2827 38.4281 53.3367 38.4665 53.3769 38.4634C53.7395 38.4366 54.0149 38.7013 54.3547 38.7511C54.461 38.7669 54.5644 38.8187 54.6627 38.8676C54.8066 38.9388 54.9472 39.0135 55.1156 38.997C55.1394 38.9945 55.1688 38.9923 55.1882 39.0032C55.4557 39.1548 55.7477 39.2197 56.0476 39.269C56.2308 39.2989 56.3142 39.4196 56.2638 39.611C56.2689 39.6347 56.2604 39.6514 56.2386 39.6613C56.1268 39.7767 56.038 39.9081 55.9642 40.05C55.8093 40.3533 55.5936 40.6128 55.3726 40.8681C55.3346 40.8318 55.305 40.7835 55.3273 40.7369C55.4477 40.4825 55.2965 40.4198 55.0907 40.3671C54.1842 40.1357 53.3251 39.7637 52.443 39.4598C51.8971 39.2718 51.3725 39.0193 50.8547 38.7616C50.5372 38.6036 50.5454 38.5241 50.8487 38.3282C50.9451 38.1075 51.1917 38.0758 51.3533 37.9334C51.5882 37.7259 51.8547 37.554 52.1078 37.3672Z" fill="#D7D7DB"/>
<path d="M36.7827 27.89C36.8084 27.6303 36.9565 27.421 37.0724 27.1994C37.106 27.1348 37.1512 27.0781 37.1527 27.0016C37.21 26.9328 37.2465 26.8503 37.3007 26.7795C37.6052 26.7348 37.7465 26.9654 37.874 27.1613C38.5213 28.1568 39.4391 28.9001 40.2815 29.7056C40.6408 30.049 41.1086 30.3137 41.5609 30.5621C41.6875 30.6317 41.7644 30.6164 41.8107 30.4698C41.8463 30.3573 41.8687 30.2149 42.0487 30.2611C41.9671 30.6928 41.847 31.1134 41.6866 31.5225C41.4594 31.9898 41.3683 31.9886 40.9265 31.683C39.7147 30.8447 38.7155 29.7781 37.6889 28.7391C37.4977 28.5458 37.3499 28.3187 37.1775 28.111C37.0666 27.9775 36.9499 27.9005 36.7827 27.89Z" fill="#D7D7DB"/>
<path d="M12.1239 41.7951C12.1353 41.8424 12.1324 41.908 12.1827 41.9238C12.4832 42.0174 12.7539 42.2144 13.0919 42.1807C13.2002 42.17 13.3139 42.1658 13.4094 42.2423C13.6176 42.4092 13.869 42.4541 14.121 42.5141C14.6925 42.6497 15.279 42.6864 15.8513 42.791C16.413 42.8937 16.9696 42.931 17.5306 42.9219C18.0514 42.9134 18.5796 43.0059 19.094 42.8484C18.9322 43.215 18.7355 43.5613 18.4926 43.8805C18.2113 44.015 17.9084 43.9576 17.6241 43.9364C16.4878 43.853 15.3569 43.7566 14.2397 43.4777C13.5867 43.3145 12.9293 43.1599 12.2771 42.9883C12.1583 42.9569 12.0396 42.9258 11.9269 42.8752C11.5849 42.7209 11.5584 42.661 11.6676 42.2822C11.7827 42.0858 11.8513 41.8446 12.1239 41.7951Z" fill="#D7D7DB"/>
<path d="M42.0487 30.2612C41.9026 30.3109 41.9046 30.4333 41.8845 30.5587C41.8511 30.7689 41.7431 30.8269 41.586 30.6897C41.3087 30.4484 40.9124 30.3828 40.6933 30.0639C40.68 30.0443 40.6588 30.0214 40.6379 30.0171C40.1896 29.9273 39.975 29.5374 39.6762 29.2602C39.3252 28.9347 38.9964 28.5846 38.6564 28.2469C38.3517 27.9448 38.0362 27.6537 37.8372 27.262C37.7222 27.0356 37.5348 26.879 37.3007 26.7795C37.3132 26.6252 37.4132 26.5152 37.4868 26.3891C37.5523 26.2758 37.6713 26.1876 37.6707 26.0392C37.8573 25.9253 38.0201 25.9484 38.16 26.1204C38.1987 26.1678 38.2612 26.2029 38.2835 26.2561C38.4363 26.6161 38.6872 26.9026 38.9693 27.1603C39.5282 27.671 39.9824 28.2964 40.6484 28.69C40.7535 28.7521 40.8623 28.82 40.9426 28.9094C41.2813 29.2873 41.7216 29.4729 42.1965 29.5985C42.2124 29.834 42.1231 30.0459 42.0487 30.2612Z" fill="#D7D7DB"/>
<path d="M56.7039 38.9374C56.6788 38.8046 56.7433 38.7059 56.8139 38.6004C56.9426 38.408 57.0562 38.2056 57.1797 38.0012C56.938 37.8104 56.6884 37.7053 56.3857 37.6431C55.9973 37.5631 55.5981 37.4715 55.2372 37.2821C55.1513 37.2369 55.0594 37.1838 54.9664 37.1753C54.4698 37.1305 54.0678 36.8259 53.6045 36.6896C53.388 36.6257 53.3772 36.5554 53.4402 36.256C53.8388 35.9148 54.1275 35.4631 54.5509 35.1462C54.5464 35.441 54.7236 35.5383 54.982 35.6318C55.7796 35.921 56.5923 36.1633 57.3959 36.4324C57.9256 36.6096 57.9211 36.623 57.7382 37.1555C57.4488 37.7812 57.1073 38.3775 56.7039 38.9374Z" fill="#D7D7DB"/>
<path d="M50.8487 38.3282C50.8171 38.413 50.7439 38.4605 50.676 38.4989C50.6941 38.6248 50.7945 38.637 50.8657 38.6678C51.2478 38.834 51.6122 39.0386 52.0165 39.1559C52.1977 39.2085 52.3593 39.3201 52.5351 39.3939C53.1089 39.6345 53.7458 39.7137 54.273 40.0681C54.2931 40.0817 54.3204 40.0989 54.3405 40.0949C54.7173 40.0195 55.0093 40.3053 55.3641 40.3335C55.5678 40.3497 55.5874 40.412 55.4797 40.6028C55.4317 40.688 55.3542 40.7575 55.3726 40.8681C55.1885 41.1225 55.0229 41.3916 54.7747 41.5928C54.7071 41.3401 54.5313 41.2321 54.286 41.1595C53.2827 40.8618 52.2946 40.511 51.3453 40.0757C50.8465 39.8467 50.2761 39.7608 49.8497 39.3741C49.7415 39.2761 49.5971 39.2074 49.6318 39.0233C49.6928 38.9306 49.8246 38.9394 49.8865 38.8472C50.1181 38.7017 50.3532 38.5612 50.5794 38.4076C50.665 38.3498 50.7501 38.3248 50.8487 38.3282Z" fill="#D7D7DB"/>
<path d="M34.9215 7.42965C34.9594 7.18574 35.0944 6.98931 35.231 6.79343C35.2428 6.80701 35.255 6.82059 35.2675 6.83417C35.5117 8.15819 36.0091 9.37477 36.8233 10.4529C37.5752 11.4487 38.4766 12.2755 39.5957 12.846C39.9208 13.0118 40.2221 13.2439 40.6121 13.2495C41.3313 13.6204 42.1242 13.679 42.9035 13.7977C43.1709 13.8386 43.4674 13.7236 43.7028 13.9424C43.7204 14.0066 43.7057 14.0634 43.6649 14.1148L43.6622 14.1168C43.5986 14.1798 43.5067 14.2059 43.4496 14.2773L43.4544 14.2737C43.219 14.4179 42.9835 14.5458 42.7053 14.3673C42.6562 14.3356 42.5815 14.3181 42.5264 14.332C42.0182 14.4594 41.5732 14.1501 41.0874 14.1292C40.9607 14.1238 40.8556 14.0526 40.7447 13.9981C40.513 13.8844 40.284 13.7609 40.0134 13.7629C39.927 13.7638 39.8444 13.7341 39.7684 13.6889C38.8698 13.1577 38.0003 12.5805 37.2182 11.8885C36.9285 11.6325 36.7294 11.2783 36.4742 10.9789C35.9792 10.3983 35.5702 9.75383 35.2994 9.03579C35.1781 8.71359 35.0732 8.38543 34.9178 8.07725C34.807 7.85885 34.8667 7.64508 34.9215 7.42965Z" fill="#D7D7DB"/>
<path d="M11.7577 42.2503C11.758 42.2628 11.755 42.276 11.7586 42.2873C11.801 42.4197 11.5945 42.5299 11.6796 42.6192C11.7818 42.7266 11.9444 42.8026 12.0933 42.8346C12.8088 42.9881 13.4825 43.3159 14.228 43.3436C14.2991 43.3465 14.3712 43.3795 14.4391 43.4076C14.8772 43.5893 15.3443 43.6102 15.8065 43.6614C16.0979 43.6935 16.3889 43.7343 16.6776 43.7852C16.8134 43.8091 16.9474 43.8008 17.0821 43.8078C17.5523 43.8318 18.0223 43.8561 18.4925 43.8805C18.3942 44.097 18.27 44.2968 18.1102 44.4734C18.0587 44.5196 17.9992 44.56 17.9901 44.6372L17.9924 44.6379C17.5141 44.6352 17.0435 44.5359 16.5638 44.5354C15.8462 44.5343 15.16 44.3061 14.4607 44.2101C13.396 44.0636 12.4357 43.6196 11.4177 43.3505C11.2319 43.3012 11.0221 43.2323 11.0772 42.9561C11.2483 42.6678 11.4131 42.3721 11.7577 42.2503Z" fill="#D7D7DB"/>
<path d="M30.498 48.8709C30.2979 49.0867 30.093 49.2969 29.8351 49.4465C29.8194 49.2378 29.7198 49.1024 29.5307 48.9939C28.7192 48.527 27.9669 47.9774 27.3111 47.3046C26.5958 46.5704 26.0025 45.7466 25.5329 44.835C25.4823 44.7366 25.4127 44.6488 25.3755 44.5435C25.4455 44.441 25.535 44.3623 25.6514 44.3163C25.7367 44.3047 25.7827 44.2436 25.8258 44.1786L25.8262 44.1784C26.0572 44.0416 26.1652 44.2134 26.2702 44.3647C26.4523 44.6272 26.5987 44.9128 26.763 45.1864C27.6197 46.6139 28.8486 47.615 30.3131 48.359C30.6645 48.5377 30.6738 48.5829 30.498 48.8709Z" fill="#D7D7DB"/>
<path d="M36.1901 29.9629C36.217 29.7012 36.2871 29.4522 36.3586 29.1986C36.4253 28.9616 36.54 28.7333 36.5607 28.4824C36.7243 28.3177 36.8267 28.4025 36.9403 28.5563C37.7434 29.6447 38.7311 30.5646 39.728 31.4626C40.2086 31.8957 40.7219 32.3252 41.3101 32.6319C41.2626 32.8648 41.1787 33.0845 41.0707 33.2953C40.922 33.578 40.7487 33.4308 40.5893 33.3154C39.75 32.7085 38.9487 32.0586 38.2338 31.3045C37.6673 30.7073 37.0565 30.1525 36.5542 29.4942C36.3224 29.5942 36.4677 29.9394 36.1901 29.9629Z" fill="#D7D7DB"/>
<path d="M57.7382 37.1555C57.686 36.989 57.9107 36.8078 57.7487 36.6696C57.6351 36.5726 57.4626 36.5266 57.3089 36.4974C56.8257 36.4061 56.3913 36.1599 55.8989 36.087C55.6561 36.0508 55.4384 35.8727 55.1914 35.7992C55.0738 35.7639 54.9621 35.7085 54.8439 35.676C54.4061 35.5555 54.3991 35.5459 54.5511 35.1466C54.8307 34.8101 55.1068 34.4707 55.4388 34.1826C55.6283 34.6055 56.0538 34.6713 56.4204 34.8101C56.8855 34.9868 57.366 35.1211 57.8371 35.2811C57.9794 35.3294 58.1238 35.3354 58.2688 35.3546C58.4539 35.3792 58.5783 35.4495 58.4771 35.6675L58.478 35.6646C58.3907 35.748 58.3682 35.8617 58.3347 35.9699L58.3389 35.9643C58.2069 36.0895 58.1602 36.2566 58.1113 36.4228C58.0248 36.6862 57.9036 36.9321 57.7382 37.1555Z" fill="#D7D7DB"/>
<path d="M34.9215 7.42966C34.881 7.8297 35.0255 8.18016 35.2403 8.4996C35.3438 8.65308 35.3082 8.82556 35.3689 8.98754C35.5493 9.46686 35.8924 9.8573 36.0584 10.3389C36.066 10.361 36.0812 10.3867 36.1005 10.3975C36.2896 10.5029 36.3619 10.7002 36.4866 10.8554C36.652 11.0612 36.8323 11.2661 37.0197 11.4595C37.0449 11.4854 37.0898 11.503 37.0997 11.5329C37.2168 11.8866 37.5452 12.0141 37.8115 12.2082C37.8706 12.2511 37.9342 12.293 37.98 12.3484C38.2926 12.7258 38.744 12.9116 39.1304 13.1863C39.1705 13.2145 39.2141 13.2646 39.2534 13.2624C39.4823 13.249 39.6056 13.3974 39.732 13.5498C39.7972 13.6278 39.8812 13.686 39.9884 13.673C40.3312 13.6311 40.613 13.7931 40.8754 13.9673C41.1139 14.1258 41.3985 13.9458 41.619 14.1129C41.8344 14.2757 42.0575 14.3048 42.3139 14.2149C42.4964 14.151 42.7149 14.2214 42.8433 14.303C43.0318 14.4235 43.1543 14.3806 43.3116 14.3019C43.3532 14.2811 43.4063 14.2825 43.4544 14.2737C43.265 14.4752 43.0284 14.6033 42.7791 14.7118C42.7144 14.7636 42.6341 14.7511 42.56 14.7647C41.1826 14.6304 39.8998 14.2318 38.7137 13.4947C37.9466 13.0178 37.1811 12.5254 36.6209 11.8303C35.9156 10.9557 35.1943 10.0655 34.8531 8.95982C34.7795 8.72154 34.5104 8.54399 34.6266 8.24719C34.6831 7.95966 34.7429 7.67313 34.9215 7.42966Z" fill="#D7D7DB"/>
<path d="M41.3101 32.6319C41.054 32.6181 40.8397 32.5256 40.6628 32.33C40.457 32.1026 40.233 31.9013 39.9346 31.7831C39.7441 31.7075 39.5883 31.5341 39.4586 31.3863C39.0583 30.9294 38.6046 30.5265 38.1824 30.0939C37.8861 29.7904 37.6178 29.4554 37.2758 29.1879C37.1054 29.0545 36.9666 28.8221 36.8747 28.6109C36.7922 28.4211 36.6918 28.4583 36.5607 28.4824C36.5616 28.4215 36.5745 28.3664 36.6339 28.3339C36.6895 28.2131 36.6799 28.066 36.7819 27.9639C36.7823 27.9392 36.7823 27.9147 36.7826 27.89C37.024 27.7433 36.9946 27.7696 37.1751 27.9721C37.3705 28.1909 37.5192 28.4444 37.7272 28.6514C38.3692 29.2896 39.0034 29.9357 39.6503 30.5689C40.0005 30.9117 40.4131 31.1778 40.812 31.4594C40.9516 31.5579 41.0464 31.7148 41.2173 31.7716C41.2985 31.7984 41.3807 31.8214 41.4627 31.8464C41.5653 31.7523 41.5391 31.5766 41.6866 31.5227C41.5925 31.9032 41.4786 32.2769 41.3101 32.6319Z" fill="#D7D7DB"/>
<path d="M27.6694 42.4728C27.737 42.347 27.839 42.2539 27.9544 42.1734C27.9934 42.1575 28.0245 42.133 28.0411 42.0931L28.035 42.0971C28.1117 42.0714 28.1662 42.0247 28.1827 41.9419L28.1821 41.9391C28.5309 42.056 28.5481 42.4072 28.6615 42.6692C29.0928 43.6656 29.767 44.4455 30.6417 45.075C31.2911 45.5425 32.0309 45.7805 32.7836 46.0061C33.1567 46.1178 33.1484 46.1457 32.9351 46.4798C32.8411 46.6282 32.7263 46.7572 32.579 46.8549C31.5515 46.6661 30.6699 46.1509 29.8292 45.5731C29.3314 45.2304 28.9727 44.7336 28.627 44.2369C28.2644 43.7162 27.8754 43.2122 27.8187 42.5449C27.8133 42.4806 27.7058 42.5282 27.6694 42.4728Z" fill="#D7D7DB"/>
<path d="M32.7198 42.5406C32.9204 42.588 32.9883 42.7645 33.083 42.9151C33.1743 42.9731 33.2029 43.0901 33.2981 43.1441C33.3247 43.1918 33.3513 43.2394 33.3778 43.2869C33.4211 43.3621 33.4812 43.4233 33.5361 43.4895C33.609 43.5774 33.7634 43.6433 33.6809 43.7903C33.6124 43.9126 33.4683 43.8959 33.3473 43.8999C32.9962 43.9124 32.6613 43.8321 32.3478 43.6832C31.1804 43.1289 30.4276 42.2164 30.0782 40.9786C30.0022 40.7097 30.0435 40.4178 30.0375 40.1368C30.0347 40.0141 30.0307 39.9202 29.8964 39.8835C30.0488 39.5884 30.2789 39.3469 30.4598 39.0713C30.5373 38.953 30.5904 38.8381 30.5735 38.6963C30.7078 38.8167 30.598 39.0146 30.714 39.1409C30.7843 39.2299 30.7806 39.3546 30.8595 39.4397C30.968 39.5972 31.0532 39.7653 31.0825 39.9572C30.9502 39.9971 30.9488 40.0938 30.9468 40.2136C30.929 41.3477 31.6402 42.4032 32.7446 42.8583C32.7542 42.7484 32.5917 42.6516 32.7198 42.5406Z" fill="#D7D7DB"/>
<path d="M27.6695 42.4728C27.7862 42.4617 27.92 42.4092 27.901 42.6237C27.8816 42.8428 28.0059 43.0302 28.1017 43.2083C28.1772 43.3482 28.2872 43.4629 28.2788 43.6368C28.2774 43.669 28.2997 43.7111 28.3243 43.7341C28.8543 44.2239 29.133 44.9271 29.7176 45.3729C29.8343 45.4617 29.9271 45.5742 30.082 45.6101C30.1891 45.635 30.2798 45.705 30.3596 45.7867C30.6063 46.04 30.941 46.1571 31.2469 46.302C31.4685 46.4072 31.6889 46.5392 31.9467 46.5838C32.0976 46.6104 32.2373 46.7094 32.4049 46.6987C32.5106 46.6918 32.5559 46.7639 32.5791 46.8552L32.5785 46.851C32.5015 46.9273 32.4216 47.0011 32.3518 47.0845L32.36 47.0763C32.2941 47.1212 32.2368 47.1736 32.2022 47.2476C32.1805 47.3343 32.1197 47.3849 32.0414 47.4189C31.5405 47.2205 31.0374 47.0342 30.5585 46.7759C29.5655 46.2408 28.7585 45.4981 28.0866 44.612C27.7027 44.1054 27.3989 43.539 27.2278 42.9151C27.3519 42.7447 27.4993 42.5974 27.6695 42.4728Z" fill="#D7D7DB"/>
<path d="M32.9354 46.4798C32.9227 46.3744 33.009 46.3024 33.0425 46.1921C32.7653 46.1186 32.5321 45.9637 32.2406 45.9414C32.0537 45.927 31.8576 45.8795 31.6933 45.7481C31.5391 45.6247 31.3157 45.6265 31.1541 45.5272C30.3744 45.0487 29.6601 44.4862 29.1332 43.727C28.9817 43.509 28.8498 43.2758 28.7025 43.0537C28.5928 42.8886 28.5591 42.6477 28.4698 42.4498C28.3899 42.272 28.3296 42.0801 28.1821 41.9391C28.2796 41.7717 28.4057 41.6298 28.5566 41.5094C28.8291 41.4184 28.869 41.6465 28.9219 41.8034C29.1245 42.4041 29.4403 42.9423 29.8007 43.457C30.3719 44.2733 31.1722 44.7747 32.0826 45.1389C32.5908 45.3421 33.1019 45.4953 33.6531 45.4888C33.7054 45.4883 33.747 45.5109 33.7421 45.5751C33.4923 45.8936 33.2415 46.2116 32.9354 46.4798Z" fill="#D7D7DB"/>
<path d="M30.498 48.8709C30.5763 48.6886 30.5582 48.5728 30.3485 48.4661C29.8386 48.207 29.3441 47.9254 28.8727 47.5885C28.3019 47.1803 27.8247 46.6924 27.3577 46.1836C26.8838 45.6677 26.5669 45.047 26.2209 44.4469C26.1289 44.2875 26.0327 44.1586 25.8262 44.1784C25.9454 44.0251 26.0936 43.9055 26.2562 43.8024C26.4907 43.6687 26.6384 43.7914 26.7328 43.9876C27.0293 44.604 27.4327 45.148 27.8619 45.6745C28.6041 46.585 29.5115 47.2818 30.5698 47.7929C30.7979 47.9028 31.1608 47.9305 31.0891 48.3423C30.9189 48.5484 30.7276 48.731 30.498 48.8709Z" fill="#D7D7DB"/>
<path d="M29.8964 39.8835C29.9408 39.8659 29.9941 39.8581 30.0285 39.8289C30.1243 39.747 30.193 39.828 30.1659 39.886C30.0203 40.1973 30.2566 40.5189 30.1255 40.8253C30.1167 40.8456 30.1184 40.8791 30.1294 40.8977C30.3652 41.2861 30.444 41.7393 30.6841 42.1338C31.08 42.7851 31.6747 43.178 32.2938 43.5574C32.6486 43.775 33.2484 43.8553 33.6418 43.7464C33.628 43.5505 33.3634 43.4957 33.3778 43.2871C33.5302 43.3818 33.6498 43.5092 33.7473 43.6585C33.8909 43.8609 34.0613 44.0367 34.2674 44.1761L34.2669 44.1755C34.3876 44.4978 34.1419 44.537 33.9406 44.5555C33.5088 44.5955 33.0706 44.5511 32.6604 44.4288C31.2641 44.0113 30.297 43.1031 29.7346 41.761C29.5612 41.348 29.6359 40.8779 29.4374 40.4706C29.5765 40.264 29.7088 40.0523 29.8964 39.8835Z" fill="#D7D7DB"/>
<path d="M17.7494 44.9905C17.6658 45.1646 17.5461 45.3113 17.4059 45.4422C17.3224 45.4942 17.2935 45.5878 17.2393 45.6618L17.2399 45.661C16.688 45.6649 16.1397 45.6048 15.599 45.51C13.87 45.2078 12.1761 44.7709 10.5442 44.1137C10.4111 44.0599 10.2523 44.032 10.2241 43.8488C10.3298 43.5695 10.495 43.3507 10.8068 43.2829C10.8963 43.4612 11.054 43.5163 11.2357 43.5853C11.7293 43.7727 12.2519 43.8798 12.7304 44.0972C13.1893 44.3056 13.6876 44.2968 14.1581 44.4395C15.0663 44.7149 16.0199 44.7624 16.9506 44.928C17.216 44.9752 17.4904 44.8822 17.7494 44.9905Z" fill="#D7D7DB"/>
<path d="M58.4771 35.6675C58.4817 35.5219 58.4311 35.4261 58.2655 35.4425C58.0252 35.466 57.8165 35.3227 57.6063 35.2935C57.1955 35.2359 56.862 34.9911 56.4677 34.9286C56.1589 34.88 55.9145 34.6863 55.6238 34.5956C55.4566 34.5433 55.3531 34.3864 55.4388 34.1826C55.5634 34.0351 55.6912 33.8901 55.8079 33.736C55.913 33.5723 55.9594 33.3603 56.1782 33.2917C56.2816 33.4508 56.4179 33.5616 56.6041 33.6171C57.2849 33.8195 57.9463 34.082 58.6386 34.2479C58.9843 34.3305 59.0139 34.4138 58.8553 34.8093C58.7895 35.1223 58.6419 35.3984 58.4771 35.6675Z" fill="#D7D7DB"/>
<path d="M36.1901 29.9629C36.3117 29.8273 36.315 29.6501 36.3625 29.4876C36.3817 29.4212 36.4043 29.3355 36.4951 29.3299C36.5641 29.3257 36.594 29.388 36.631 29.4378C37.0865 30.0498 37.6339 30.5764 38.18 31.1044C38.4701 31.3851 38.7517 31.6744 39.0376 31.9591C39.3413 32.2612 39.666 32.5304 40.0335 32.76C40.2777 32.9129 40.4912 33.1269 40.7218 33.3092C40.862 33.4197 40.9581 33.3977 41.0707 33.2953C41.0531 33.4301 40.9951 33.5497 40.9273 33.6648C40.6523 34.1804 40.6277 34.2107 40.1545 33.8228C39.0563 32.9222 37.9151 32.0658 37.0338 30.9273C36.795 30.6187 36.5239 30.3282 36.1898 30.1111C36.1898 30.0617 36.1901 30.0124 36.1901 29.9629Z" fill="#D7D7DB"/>
<path d="M34.6266 8.24719C34.64 8.33144 34.619 8.43093 34.6871 8.49309C34.9439 8.72828 34.948 9.08051 35.1004 9.35667C35.2508 9.62973 35.3043 9.96606 35.5623 10.1722C35.7096 10.29 35.6768 10.4851 35.8009 10.6156C35.9854 10.809 36.1771 11.0108 36.3001 11.244C36.5123 11.6466 36.8677 11.9152 37.1501 12.2509C37.2281 12.3437 37.3183 12.4406 37.4243 12.4921C37.772 12.6614 38.0436 12.927 38.318 13.1846C38.4633 13.3211 38.6615 13.2932 38.8082 13.4191C39.0756 13.6493 39.4057 13.7846 39.7246 13.9263C40.0412 14.0667 40.364 14.1932 40.6998 14.2958C40.9584 14.3749 41.2347 14.4063 41.4929 14.5199C41.7389 14.6284 42.0434 14.6061 42.3223 14.6366C42.4077 14.646 42.4973 14.6299 42.5569 14.7127C42.6047 14.7984 42.5214 14.8181 42.4832 14.8608L42.4636 14.8754L42.4399 14.8713C42.3811 14.8944 42.3043 14.8789 42.2675 14.9504L42.2735 14.9456C42.1459 14.9914 41.997 14.9821 41.8946 15.0923L41.8992 15.0909C41.8653 15.1081 41.8302 15.1115 41.7943 15.0977C40.8129 14.8459 39.8335 14.5594 38.9496 14.0696C37.7524 13.4062 36.6862 12.5666 35.8611 11.4417C35.3266 10.7129 34.8723 9.94486 34.4882 9.13108C34.4831 9.11353 34.4782 9.09575 34.4735 9.07819C34.4695 8.791 34.5232 8.51462 34.6266 8.24719Z" fill="#D7D7DB"/>
<path d="M31.089 48.3423C31.0203 47.9785 30.6848 47.9268 30.4271 47.831C30.1002 47.7098 29.821 47.519 29.5443 47.329C29.1236 47.0401 28.7248 46.7173 28.3344 46.3874C28.1312 46.2156 27.9824 45.9857 27.8196 45.772C27.5305 45.3933 27.2165 45.0326 26.9777 44.6174C26.8807 44.4484 26.7577 44.2974 26.6966 44.1032C26.6347 43.9055 26.4976 43.7634 26.2562 43.8024C26.2911 43.7337 26.3415 43.6828 26.4165 43.6591C26.9871 43.2187 26.9713 43.2258 27.2667 43.9033C27.4178 44.2496 27.6892 44.5314 27.9053 44.8418C28.7779 46.0955 29.979 46.9426 31.3599 47.5565C31.6767 47.6973 31.6767 47.7112 31.4614 47.9856C31.3666 48.1354 31.234 48.2454 31.089 48.3423Z" fill="#D7D7DB"/>
<path d="M33.7422 45.5751C33.3437 45.5747 32.9318 45.5792 32.5666 45.4274C31.9568 45.1734 31.3143 44.9907 30.7877 44.5413C30.5121 44.3061 30.1823 44.1266 29.9626 43.8296C29.7464 43.5373 29.4787 43.2755 29.3671 42.9137C29.36 42.8908 29.3503 42.8654 29.334 42.849C29.0287 42.5403 28.9645 42.1149 28.8025 41.738C28.7491 41.614 28.705 41.5153 28.5566 41.5094C28.6635 41.3429 28.7964 41.1999 28.9459 41.0718C29.1144 40.9217 29.1949 40.9924 29.2512 41.1807C29.4445 41.8313 29.7153 42.4374 30.111 43.0024C30.7558 43.9225 31.6024 44.5139 32.685 44.7736C33.0536 44.8619 33.4227 44.9729 33.8134 44.9178C33.9239 44.9023 34.0379 44.9266 34.0865 45.0561C34.0941 45.1157 34.0803 45.1694 34.0444 45.2174C33.9652 45.3549 33.8773 45.4852 33.7422 45.5751Z" fill="#D7D7DB"/>
<path d="M17.7494 44.9905C17.4305 45.0586 17.1197 45.0264 16.7948 44.9899C16.3738 44.943 15.9582 44.8568 15.5346 44.8203C15.1751 44.7892 14.8153 44.6914 14.4575 44.6187C14.0813 44.5419 13.7279 44.3592 13.3271 44.3815C13.0488 44.3974 12.8201 44.2119 12.5672 44.1233C12.5005 44.0998 12.4477 44.0302 12.3692 44.034C12.0856 44.0481 11.8457 43.9133 11.5957 43.8129C11.4164 43.7405 11.2497 43.6523 11.0419 43.6444C10.8237 43.6362 10.775 43.5353 10.7973 43.3063C10.8025 43.2764 10.8163 43.2512 10.8365 43.2291C10.9038 43.1684 10.9402 43.0876 10.9777 43.0073C11.0289 42.951 11.0674 42.8631 11.1685 42.9285C11.1483 43.0352 11.1164 43.1289 11.2626 43.1972C11.4123 43.267 11.5808 43.2526 11.72 43.3179C12.3221 43.6011 12.9974 43.6747 13.5896 43.9807C13.7058 44.041 13.8289 44.0325 13.9505 44.0285C14.4509 44.0115 14.9046 44.201 15.3703 44.3404C15.5924 44.4071 15.8251 44.3819 16.0527 44.4009C16.6321 44.4495 17.2188 44.4167 17.7899 44.5535C17.86 44.5705 17.925 44.6094 17.9924 44.6377C17.9434 44.7776 17.8487 44.8859 17.7494 44.9905Z" fill="#D7D7DB"/>
<path d="M49.6646 38.9954C49.7042 39.3131 50.0275 39.3328 50.211 39.4968C50.3179 39.5923 50.4846 39.6404 50.6392 39.6885C50.8642 39.7586 51.0918 39.8267 51.3066 39.9655C51.5059 40.0938 51.7713 40.1563 52.0079 40.2484C52.5433 40.4579 53.0636 40.7077 53.6319 40.8341C53.9657 40.9085 54.2707 41.0837 54.6105 41.1564C54.8111 41.199 54.8326 41.2946 54.7747 41.5928C54.5496 41.8853 54.3261 42.179 54.0378 42.4145C54.0251 42.3255 54.0731 42.2542 54.1064 42.1787C54.1129 42.1004 54.1582 42.0414 54.2062 41.9857C54.3639 41.804 54.3072 41.7418 54.087 41.6713C52.8141 41.2643 51.5285 40.8887 50.334 40.2721C49.9515 40.0746 49.5261 39.9737 49.1631 39.7316C48.8039 39.492 48.7977 39.4549 49.1461 39.2175C49.1954 39.2175 49.2445 39.2175 49.294 39.2172C49.3177 39.1915 49.3452 39.1695 49.3684 39.1432H49.3681C49.4088 39.101 49.4772 39.1143 49.5165 39.0691C49.5408 39.0445 49.5685 39.0224 49.5906 38.9954C49.6149 38.9699 49.6397 38.9684 49.6646 38.9954Z" fill="#D7D7DB"/>
<path d="M25.3755 44.5435C25.5481 44.5597 25.5666 44.7149 25.6299 44.828C26.0239 45.5316 26.4547 46.2029 26.9922 46.8152C27.2917 47.1562 27.6414 47.4398 27.9432 47.7756C28.1912 48.0518 28.5318 48.2497 28.8452 48.4605C29.1703 48.6796 29.5112 48.8752 29.8476 49.0767C30.072 49.2113 29.8495 49.3238 29.8351 49.4465L29.8379 49.4417C29.7947 49.4516 29.7735 49.4855 29.7525 49.5197C29.7221 49.587 29.665 49.6209 29.5985 49.6437C28.7284 49.2255 27.9675 48.6666 27.2712 47.9908C26.5497 47.2905 25.9262 46.5251 25.3905 45.6802C25.2269 45.4218 25.1268 45.1262 24.9214 44.8936C24.9604 44.8319 25.0089 44.7827 25.0848 44.7702C25.1531 44.7111 25.2459 44.6858 25.3017 44.61L25.2953 44.6162C25.3319 44.6015 25.3586 44.5756 25.3784 44.5419L25.3755 44.5435Z" fill="#D7D7DB"/>
<path d="M36.0403 31.8142C36.0412 31.5918 36.0419 31.3697 36.0428 31.1475C36.1344 31.0083 36.029 30.7494 36.2269 30.7045C36.4547 30.6525 36.5384 30.9006 36.667 31.0406C37.4567 31.9005 38.2531 32.7557 39.1584 33.4969C39.6115 33.8675 40.0096 34.3154 40.563 34.5541C40.5655 34.616 40.5438 34.6666 40.4934 34.7036C40.4304 34.8054 40.388 34.9161 40.3465 35.0279C40.3564 35.0453 40.3526 35.06 40.3357 35.0716C40.1941 35.3218 40.029 35.2469 39.8529 35.1112C38.6165 34.1572 37.4884 33.0871 36.4527 31.9213C36.3128 31.7638 36.2059 31.7435 36.0403 31.8142Z" fill="#D7D7DB"/>
<path d="M31.461 47.9856C31.5616 47.7389 31.5464 47.7679 31.2982 47.6374C30.9107 47.433 30.4929 47.2849 30.1328 47.029C29.6853 46.7114 29.2102 46.4309 28.8229 46.0324C28.5501 45.7519 28.2881 45.4647 28.0351 45.1646C27.7458 44.8206 27.5821 44.3864 27.2305 44.0952C27.164 44.0405 27.1693 43.9686 27.155 43.8968C27.1337 43.7888 27.1114 43.6786 27.069 43.5783C26.9899 43.3906 26.8919 43.3646 26.7248 43.4754C26.6249 43.5418 26.5596 43.6651 26.4165 43.6591C26.6105 43.4335 26.8449 43.2523 27.0714 43.0624C27.1451 43.0358 27.1964 42.985 27.2292 42.9145L27.2279 42.9151C27.4701 43.1992 27.5677 43.5613 27.7422 43.8818C28.1146 44.5665 28.5883 45.1576 29.185 45.6573C29.4744 45.8998 29.7237 46.1969 30.0602 46.3756C30.6462 46.6865 31.1832 47.1054 31.8624 47.2185C31.976 47.2372 32.032 47.307 32.0416 47.4189L32.0292 47.4291C31.9744 47.5043 31.8619 47.5198 31.8319 47.6204C31.7428 47.777 31.6109 47.8906 31.461 47.9856Z" fill="#D7D7DB"/>
<path d="M28.6398 50.3999C28.785 50.0974 28.7474 50.0559 28.4679 49.8747C28.1737 49.6842 27.8414 49.5573 27.5887 49.2921C27.3126 49.0024 26.9567 48.8009 26.6609 48.5261C26.4997 48.3762 26.3466 48.2092 26.214 48.0481C25.7509 47.4851 25.2177 46.9708 24.9062 46.2899C24.7909 46.0375 24.5677 45.8425 24.479 45.5671C24.4512 45.4803 24.3756 45.4368 24.2703 45.4727C24.2021 45.4962 24.127 45.5001 24.0548 45.5129C24.2604 45.3475 24.4649 45.1813 24.7015 45.0606C24.7323 45.0376 24.7663 45.0326 24.8032 45.0425C25.0206 45.2206 25.1132 45.4872 25.238 45.72C25.7758 46.723 26.5035 47.5746 27.3487 48.313C27.8735 48.7709 28.4178 49.2235 29.0253 49.5804C29.2559 49.7162 29.3295 49.8589 29.0908 50.0525C28.9575 50.1904 28.8181 50.3202 28.6398 50.3999Z" fill="#D7D7DB"/>
<path d="M58.251 30.3321C58.4954 29.8996 58.7945 29.5028 59.0693 29.09C59.0794 29.0745 59.1142 29.075 59.1377 29.068C59.143 29.4224 59.311 29.5953 59.6768 29.6213C59.9031 29.6372 60.1115 29.7699 60.3317 29.8378C60.5672 29.9102 60.6437 30.045 60.5533 30.2739C60.3916 30.8567 60.2305 31.4398 59.9676 31.988C59.9267 31.9571 59.8904 31.9146 59.8981 31.8656C59.9464 31.5537 59.7681 31.5291 59.5123 31.443C59.0667 31.2933 58.5613 31.3023 58.1747 30.9861C58.0873 30.9149 57.9364 30.8696 58.0302 30.7032V30.7034C58.0825 30.653 58.1308 30.6002 58.1458 30.5255C58.1704 30.4551 58.2097 30.3931 58.251 30.3321Z" fill="#D7D7DB"/>
<path d="M43.6675 13.9718C43.412 13.9249 43.155 13.8949 42.8946 13.8971C42.5628 13.9002 42.2361 13.8794 41.9381 13.7092C41.8601 13.6645 41.7703 13.6699 41.6855 13.6766C41.2569 13.7103 40.9007 13.5291 40.5581 13.3053C40.1509 13.0625 39.6992 12.9174 39.2895 12.6661C38.3327 12.0788 37.5208 11.3515 36.8515 10.4542C36.3425 9.77194 35.9317 9.03247 35.6389 8.23901C35.4798 7.80794 35.3876 7.34684 35.2711 6.89799C35.2669 6.86354 35.2691 6.82898 35.2782 6.79541C35.3488 6.6999 35.3836 6.58507 35.4421 6.48337L35.4387 6.48668C35.4698 6.45764 35.4983 6.45842 35.5238 6.49375C35.6494 6.73888 35.6556 7.002 35.6827 7.27054C35.7217 7.65777 35.869 8.03209 36.0388 8.37858C36.1513 8.60814 36.2186 8.85437 36.3476 9.08017C36.5686 9.46752 36.7616 9.86579 37.0836 10.1869C37.1899 10.2929 37.2244 10.4523 37.323 10.5814C38.0039 11.4747 38.8737 12.1228 39.8642 12.6257C39.9849 12.6871 40.1101 12.7396 40.208 12.8394C40.241 12.8733 40.2885 12.9166 40.3298 12.9166C40.7241 12.9188 41.0502 13.1531 41.4222 13.2296C41.6148 13.2685 41.8033 13.3169 42.0042 13.3084C42.2632 13.2973 42.4797 13.4678 42.7432 13.4865C43.2011 13.5186 43.6579 13.4833 44.1147 13.5039C44.2226 13.5088 44.2868 13.3604 44.4132 13.3825C44.2668 13.6275 44.0607 13.8141 43.8314 13.9783C43.7752 14.0131 43.7207 14.0153 43.6675 13.9718Z" fill="#D7D7DB"/>
<path d="M40.563 34.5541C40.5061 34.5691 40.4524 34.6083 40.3899 34.5659C40.1116 34.3765 39.8309 34.1965 39.5666 33.9811C38.6894 33.2668 37.9113 32.4522 37.1082 31.6617C36.8629 31.4204 36.637 31.164 36.4326 30.8884C36.3789 30.8157 36.3271 30.754 36.2291 30.7575C36.1358 30.8726 36.159 31.0434 36.0428 31.1475C35.9874 30.7871 36.1035 30.4512 36.1898 30.1111C36.2809 30.0666 36.343 30.0443 36.4385 30.1475C36.797 30.535 37.1554 30.9219 37.4982 31.3234C38.1213 32.053 38.837 32.6797 39.6191 33.2326C39.659 33.2609 39.7101 33.2855 39.7327 33.325C39.9097 33.6374 40.2633 33.7485 40.4945 34.0009C40.619 34.1366 40.6718 34.1156 40.7529 33.9296C40.7967 33.8298 40.8036 33.7106 40.9274 33.6648C40.8406 33.9755 40.7165 34.2708 40.563 34.5541Z" fill="#D7D7DB"/>
<path d="M10.2809 43.8202C10.2862 43.933 10.3773 43.9403 10.4564 43.976C11.1181 44.2725 11.8274 44.4342 12.5004 44.6999C12.7598 44.8025 13.0435 44.8469 13.3189 44.9039C13.4411 44.9294 13.5529 44.9733 13.6681 45.0165C13.8255 45.0755 13.9771 45.1321 14.1633 45.1188C14.3331 45.1063 14.537 45.1126 14.6807 45.2616C15.0662 45.231 15.4211 45.3928 15.7938 45.4467C16.2062 45.5064 16.6293 45.4634 17.0328 45.5863C17.103 45.6075 17.171 45.6358 17.2399 45.661C17.189 45.7825 17.0939 45.8679 17.0001 45.9543C16.877 46.0739 16.7243 46.142 16.5621 46.0906C16.0842 45.9389 15.5882 45.9597 15.0996 45.9215C14.5551 45.8795 14.0565 45.6559 13.5302 45.5405C12.6104 45.339 11.7006 45.06 10.8203 44.7084C10.5351 44.5944 10.2495 44.4799 9.97293 44.3451C9.94378 44.3257 9.91794 44.3016 9.89608 44.2742C9.88239 44.2425 9.87874 44.2094 9.8868 44.1755C9.92854 44.1054 9.97745 44.0393 10.0121 43.9644C10.0843 43.8841 10.1236 43.7414 10.2809 43.8202Z" fill="#D7D7DB"/>
<path d="M58.8553 34.8093C58.8596 34.761 58.8511 34.7061 58.8709 34.6648C58.9628 34.4735 58.8624 34.3725 58.6973 34.346C57.9559 34.2279 57.2783 33.9008 56.5612 33.7035C56.4696 33.6783 56.3774 33.6481 56.2901 33.5955C56.1607 33.5178 56.1485 33.4178 56.1782 33.2917C56.3647 32.9115 56.6349 32.5875 56.8913 32.2566C57.0127 32.1004 57.0655 31.8768 57.2874 31.8084C57.397 31.9795 57.2512 32.0827 57.1758 32.1975C56.9332 32.5672 56.9377 32.5485 57.347 32.7435C57.8273 32.9722 58.3521 33.053 58.8475 33.234C59.3989 33.4352 59.4088 33.4084 59.2183 33.9706C59.1343 34.2663 59.0368 34.556 58.8553 34.8093Z" fill="#D7D7DB"/>
<path d="M16.2769 46.7701C16.1873 46.925 16.0584 47.0415 15.914 47.143C15.8148 47.2015 15.7088 47.2198 15.5949 47.2004C14.933 47.087 14.2673 47.0268 13.6105 46.8442C13.0014 46.6746 12.3798 46.5311 11.7866 46.3178C11.2462 46.1239 10.6775 46.0081 10.161 45.7461C9.85554 45.5912 9.50573 45.5425 9.21611 45.3435C9.06716 45.2415 8.92991 45.1487 8.95055 44.9421C9.02906 44.7474 9.13031 44.5806 9.37908 44.5973C9.53411 44.7999 9.74192 44.917 9.98141 45.0012C10.585 45.2132 11.1717 45.475 11.7787 45.6731C12.3505 45.8599 12.9339 46.0259 13.5253 46.1395C13.8539 46.2029 14.1767 46.2885 14.4899 46.3888C15.0125 46.5562 15.576 46.4508 16.0852 46.6686C16.1524 46.6976 16.2286 46.706 16.2769 46.7701Z" fill="#D7D7DB"/>
<path d="M60.5533 30.2739C60.5548 30.1077 60.537 29.995 60.3205 29.939C59.9939 29.8549 59.6935 29.6867 59.3438 29.6573C59.0713 29.634 59.0052 29.476 59.1075 29.2096C59.1247 29.1652 59.1282 29.1154 59.1378 29.068C59.211 28.765 59.4134 28.5318 59.5799 28.283C59.8015 27.9516 59.9541 27.5731 60.2483 27.2912C60.2681 27.3069 60.2811 27.3266 60.2927 27.3478C60.3775 27.507 60.0991 27.677 60.254 27.7815C60.4496 27.9139 60.6636 28.0461 60.9061 28.0996C60.9539 28.1101 61.0011 28.1219 61.0458 28.1435C61.0766 28.1648 61.0972 28.1932 61.1085 28.2288C61.0955 28.3183 61.119 28.4127 61.0717 28.4977C61.0574 28.7939 60.9349 29.0619 60.8527 29.3408C60.7606 29.6542 60.6901 29.9747 60.5533 30.2739Z" fill="#D7D7DB"/>
<path d="M16.2769 46.7701C15.8192 46.7181 15.3547 46.6644 14.9106 46.5749C14.2609 46.4432 13.6115 46.2758 12.9678 46.0997C12.6347 46.0083 12.3101 45.8568 11.9481 45.8483C11.8021 45.845 11.6643 45.7093 11.5134 45.6697C10.9253 45.5162 10.3945 45.2101 9.81073 45.0451C9.68353 45.0092 9.56859 44.928 9.45132 44.8615C9.34654 44.8022 9.33958 44.7104 9.38452 44.6077C9.44403 44.3288 9.61286 44.1789 9.90172 44.171C9.90426 44.1978 9.90679 44.2242 9.90933 44.251C9.84077 44.498 9.97073 44.5685 10.1867 44.6555C10.7421 44.8791 11.3395 44.9865 11.8709 45.272C12.0026 45.343 12.1422 45.385 12.2925 45.3919C12.4031 45.397 12.53 45.3843 12.6174 45.4436C13.2247 45.8563 13.9608 45.7766 14.6236 45.9781C15.1746 46.1457 15.7641 46.1449 16.3233 46.2941C16.4285 46.3221 16.5458 46.3089 16.63 46.3979C16.5593 46.5189 16.468 46.6204 16.3483 46.695C16.3259 46.7219 16.2949 46.7411 16.2757 46.7715L16.2769 46.7701Z" fill="#D7D7DB"/>
<path d="M36.0403 31.8142C36.2022 31.478 36.1825 31.4962 36.4505 31.794C36.8852 32.2769 37.3634 32.7204 37.7965 33.2052C38.2081 33.6659 38.72 34.0099 39.155 34.4413C39.3975 34.6816 39.7242 34.8184 39.9516 35.0837C40.0677 35.2194 40.2107 35.1861 40.3357 35.0714C40.306 35.2379 40.2382 35.3874 40.1341 35.5208C40.0295 35.782 39.8623 35.7402 39.6677 35.6259C39.1197 35.3048 38.6962 34.8387 38.2293 34.4207C37.5687 33.8291 36.9185 33.2264 36.3675 32.5324C36.185 32.3029 36.1494 32.6183 36.0406 32.5547C36.0457 32.3079 35.908 32.0611 36.0403 31.8142Z" fill="#D7D7DB"/>
<path d="M59.2183 33.9706C59.1726 33.8033 59.3701 33.6421 59.2404 33.4788C59.1287 33.338 58.9419 33.3957 58.7971 33.3391C58.4715 33.2117 58.143 33.1113 57.7962 33.0392C57.4626 32.9697 57.1577 32.7622 56.8154 32.6042C56.91 32.3931 57.0395 32.2085 57.1831 32.0341C57.2394 31.9661 57.2925 31.9022 57.2874 31.8084C57.3476 31.5902 57.4387 31.3945 57.6574 31.2898C57.8273 31.4408 57.4414 31.6437 57.6908 31.7662C57.8411 31.8401 58.0149 31.8747 58.1775 31.9299C58.5029 32.0405 58.8153 32.1938 59.1479 32.2737C59.774 32.4244 59.7774 32.4137 59.5923 33.0191C59.5174 33.3558 59.3851 33.6698 59.2183 33.9706Z" fill="#D7D7DB"/>
<path d="M16.63 46.3979C16.2523 46.4528 15.9075 46.2837 15.5443 46.2368C15.1293 46.1833 14.6998 46.1497 14.3103 46.0121C13.9727 45.8925 13.6436 45.9021 13.3063 45.8735C13.1081 45.8568 12.949 45.7127 12.7834 45.6197C12.6472 45.5431 12.5086 45.4806 12.377 45.4962C12.0945 45.5296 11.873 45.4018 11.6618 45.2667C11.5207 45.1764 11.3697 45.1069 11.2218 45.1063C11.0243 45.105 10.8682 45.0286 10.7054 44.9481C10.4773 44.8356 10.2447 44.7375 9.99145 44.6968C9.94375 44.6892 9.89329 44.6792 9.85155 44.6569C9.68493 44.5673 9.68029 44.4701 9.83068 44.3268C9.85707 44.3016 9.88313 44.2762 9.9093 44.251C10.2939 44.3327 10.6194 44.5721 11.002 44.6598C11.4865 44.7706 11.9204 45.0221 12.4128 45.1335C12.7209 45.2033 13.0633 45.2285 13.352 45.4082C13.4516 45.4702 13.5876 45.51 13.7034 45.5024C14.0491 45.4803 14.3366 45.6307 14.6438 45.7477C14.8504 45.8264 15.0896 45.8235 15.3153 45.8478C15.459 45.8634 15.6051 45.8546 15.7487 45.8695C15.978 45.8931 16.2062 45.8749 16.4334 45.9813C16.6001 46.059 16.8136 46.0281 17.0001 45.9543C16.9449 46.0788 16.853 46.1732 16.7504 46.2585C16.6934 46.269 16.6602 46.302 16.6537 46.3602C16.6576 46.3803 16.6496 46.3928 16.63 46.3979Z" fill="#D7D7DB"/>
<path d="M9.01359 44.9014C9.02243 44.9862 8.99869 45.099 9.07918 45.1411C9.31382 45.2641 9.52151 45.4551 9.78519 45.5004C9.93591 45.5264 10.0602 45.5727 10.1908 45.6459C10.4136 45.7706 10.6347 45.8911 10.9131 45.8907C11.1306 45.8905 11.3198 46.0429 11.5183 46.1335C11.6656 46.2009 11.8074 46.2645 11.9751 46.2524C12.1977 46.2357 12.3685 46.3841 12.5474 46.4747C12.7053 46.5548 12.8562 46.6082 13.0256 46.6108C13.4729 46.6173 13.8823 46.7577 14.2812 46.944C14.3248 46.9643 14.3746 46.9898 14.4194 46.9861C14.9277 46.946 15.4158 47.0913 15.914 47.143C15.8919 47.2173 15.8328 47.2564 15.7706 47.2925C15.6948 47.3182 15.6428 47.3686 15.6128 47.4423L15.6158 47.4383C15.5829 47.4573 15.5573 47.4836 15.5367 47.515L15.5393 47.5128C15.505 47.5356 15.4673 47.5481 15.426 47.5498C14.5831 47.5336 13.8095 47.1546 12.9774 47.083C12.837 47.0707 12.7226 46.996 12.597 46.9474C12.0003 46.7173 11.3779 46.5672 10.7723 46.3629C10.3671 46.226 10.0038 45.9567 9.55365 45.9561C9.49534 45.9389 9.43969 45.9154 9.3899 45.8797C9.15658 45.6182 8.85128 45.4269 8.65485 45.1293C8.72816 44.9809 8.80247 44.8336 9.01359 44.9014Z" fill="#D7D7DB"/>
<path d="M59.5922 33.0191C59.5844 32.9329 59.6016 32.8519 59.6223 32.7671C59.6799 32.5321 59.6386 32.4478 59.3949 32.4148C58.8875 32.3458 58.4358 32.1237 57.9723 31.9333C57.8773 31.8944 57.7829 31.8942 57.6856 31.8867C57.4182 31.8661 57.3711 31.7658 57.5296 31.5433C57.5862 31.4638 57.6648 31.3999 57.6574 31.2898C57.7142 31.0513 57.8479 30.8618 58.0303 30.7032C58.2442 30.9107 58.4434 31.1432 58.7788 31.1475C58.9721 31.1501 59.1615 31.1239 59.3104 31.3186C59.3933 31.4268 59.5674 31.3643 59.7005 31.3686C60.0374 31.3792 60.0675 31.4101 59.9914 31.7337C59.9713 31.8195 59.9546 31.9012 59.9676 31.988C59.8933 32.3501 59.7718 32.6952 59.5922 33.0191Z" fill="#D7D7DB"/>
<path d="M29.0908 50.0525C29.2093 49.7803 29.1972 49.7992 28.9598 49.6477C28.6313 49.438 28.3056 49.2172 28.0116 48.9634C27.6073 48.6137 27.1545 48.3229 26.7901 47.924C26.4352 47.5362 26.0572 47.1611 25.7691 46.7258C25.5708 46.4258 25.3193 46.1596 25.1806 45.8085C25.0806 45.5546 24.9052 45.3229 24.788 45.0677C24.8033 44.9871 24.9014 44.971 24.9227 44.8952L24.9215 44.8936C25.0331 44.9218 25.1502 44.9701 25.1869 45.0761C25.2806 45.3471 25.4324 45.5812 25.5939 45.813C25.8872 46.2342 26.1688 46.6622 26.4896 47.0647C26.7809 47.4296 27.1469 47.7174 27.4689 48.0492C27.7847 48.3746 28.1228 48.6942 28.5345 48.9306C28.8676 49.122 29.2022 49.3164 29.5293 49.521C29.5757 49.5502 29.5912 49.5943 29.5985 49.6437L29.5893 49.6514C29.5313 49.7201 29.4369 49.7439 29.3831 49.8176C29.3136 49.9307 29.2122 50.0036 29.0908 50.0525Z" fill="#D7D7DB"/>
<path d="M34.6306 11.1592C34.5416 10.9201 34.4816 10.6753 34.4853 10.4178C34.7318 10.3174 34.8228 10.5182 34.902 10.6655C35.3684 11.5343 36.0055 12.2631 36.7223 12.929C37.5036 13.6549 38.4056 14.1959 39.3651 14.6491C39.7209 14.8173 40.0802 14.9753 40.4598 15.0849C40.5672 15.1161 40.6724 15.1677 40.6396 15.3168C40.0782 15.3982 39.5598 15.2871 39.0374 15.0566C37.7798 14.5018 36.7111 13.6882 35.7875 12.6947C35.3551 12.2292 34.8918 11.7639 34.6306 11.1592Z" fill="#D7D7DB"/>
<path d="M40.6331 15.302C40.598 15.2331 40.5474 15.1831 40.4702 15.163C39.7113 14.9648 39.0094 14.6422 38.3571 14.207C38.2482 14.1341 38.1473 14.0317 37.9963 14.0374C37.963 14.0385 37.9189 14.0212 37.8966 13.9973C37.5718 13.6487 37.1178 13.4666 36.7863 13.1263C36.3229 12.6509 35.8249 12.2071 35.4218 11.6771C35.2318 11.4272 35.0955 11.1369 34.9218 10.8738C34.8056 10.6973 34.7556 10.4495 34.4853 10.4178C34.3934 9.97202 34.3852 9.52571 34.4735 9.07819L34.4955 9.09155C34.6369 9.99377 35.1977 10.6816 35.6808 11.4085C36.1556 12.137 36.737 12.7603 37.4748 13.2298C37.506 13.2434 37.535 13.2606 37.5633 13.2798C37.6939 13.3805 37.7954 13.5168 37.9434 13.5972C37.9729 13.6125 38.0012 13.63 38.0291 13.6476C38.2174 13.7462 38.344 13.9449 38.5722 13.9792C38.6041 13.9896 38.6343 14.004 38.6635 14.0212C38.8641 14.1329 39.038 14.2949 39.2743 14.337C39.3068 14.3436 39.3379 14.3539 39.3684 14.3664C39.4934 14.4382 39.609 14.5275 39.7528 14.5626C39.784 14.5725 39.813 14.5855 39.8418 14.6005C39.9357 14.6674 40.042 14.6991 40.156 14.7104C40.2068 14.72 40.254 14.7381 40.2979 14.7656C40.6175 14.9326 40.9533 15.0423 41.3155 15.0617C41.3494 15.0592 41.3833 15.0592 41.4172 15.0584C41.4845 15.0541 41.552 15.0468 41.6196 15.0448C41.686 15.051 41.7567 15.0323 41.8172 15.0762C41.8446 15.081 41.8718 15.0858 41.8991 15.0906C41.7157 15.1731 41.5331 15.2583 41.3236 15.2387C41.1976 15.3012 41.0395 15.2178 40.9237 15.3266C40.8253 15.3376 40.7252 15.367 40.6331 15.302Z" fill="#D7D7DB"/>
<path d="M40.6331 15.302C40.7322 15.2994 40.8318 15.2972 40.931 15.2947C40.9627 15.2712 40.9895 15.2757 41.0116 15.3085C40.9788 15.3246 40.9471 15.3523 40.9132 15.3552C40.0123 15.4318 39.1202 15.423 38.2634 15.0778C38.1976 15.0231 38.1695 14.9357 38.0891 14.8913C36.9785 14.2776 36.0394 13.457 35.2157 12.4985C35.1917 12.4705 35.1691 12.4417 35.1377 12.4214C34.8835 12.0349 34.7137 11.6146 34.6306 11.1592C34.8985 11.5555 35.2867 11.8526 35.5439 12.256C35.7762 12.6209 36.1093 12.8875 36.4072 13.1888C36.5191 13.3021 36.6404 13.4022 36.771 13.4967C37.0452 13.6945 37.2846 13.9452 37.5709 14.1207C37.9519 14.3548 38.2926 14.6564 38.7372 14.793C39.0349 14.8843 39.3107 15.0502 39.5965 15.178C39.947 15.3348 40.2865 15.2814 40.6331 15.302Z" fill="#D7D7DB"/>
<path d="M34.043 45.0659C34.0036 45.0108 33.9457 44.9811 33.8835 44.995C33.3957 45.1024 32.9281 44.9492 32.4787 44.8251C32.0532 44.7078 31.6368 44.5357 31.2536 44.2694C30.9396 44.0512 30.6888 43.7803 30.4059 43.5379C30.0972 43.2735 29.9053 42.9145 29.7088 42.5751C29.4487 42.1262 29.2486 41.6397 29.1528 41.1199C29.1242 40.9656 29.0143 41.0917 28.9459 41.0718C28.9897 40.9777 29.0482 40.896 29.1392 40.8415C29.321 40.6224 29.3987 40.6693 29.4855 40.9324C29.6799 41.5227 29.8129 42.135 30.1842 42.6625C30.7914 43.5246 31.5535 44.1461 32.5856 44.4308C33.0652 44.5631 33.5418 44.6334 34.0379 44.61C34.1761 44.6035 34.3703 44.5365 34.4166 44.7731L34.4175 44.7714C34.3856 44.7921 34.3606 44.8195 34.3429 44.8528L34.3479 44.8472C34.3131 44.8669 34.2843 44.8918 34.2725 44.932L34.2801 44.9251C34.2386 44.9385 34.2106 44.9653 34.1999 45.0083L34.2091 45.0021C34.1529 45.021 34.1255 45.1152 34.043 45.0659Z" fill="#D7D7DB"/>
<path d="M15.3222 48.315C15.1155 48.3416 14.9147 48.3613 14.725 48.2313C14.5771 48.1298 14.3919 48.1793 14.2249 48.1519C13.6615 48.0591 13.1147 47.9093 12.5747 47.7293C12.4561 47.6668 12.3223 47.6431 12.2024 47.5845C11.9364 47.4596 11.6715 47.3321 11.4033 47.2122C11.3324 47.1806 11.2743 47.1433 11.2376 47.0749C11.1184 46.944 10.9316 46.9308 10.7981 46.823C10.7413 46.7772 10.6653 46.7481 10.7022 46.6554C10.7337 46.5768 10.8062 46.5595 10.8812 46.5556C10.9559 46.5519 11.0287 46.5706 11.0899 46.6102C11.4049 46.8148 11.7611 46.8841 12.1238 46.9339C12.5554 47.0596 12.9614 47.2843 13.4293 47.2685C13.4845 47.2722 13.5382 47.2838 13.5903 47.3019C14.0406 47.5925 14.5589 47.6034 15.0664 47.6577C15.0984 47.6663 15.1279 47.6806 15.1553 47.6993C15.2171 47.7581 15.1733 47.8166 15.1547 47.8757C15.1095 48.0042 14.943 48.0272 14.9028 48.1642C15.0092 48.3093 15.2055 48.2033 15.3222 48.315Z" fill="#D7D7DB"/>
<path d="M36.0406 32.5547C36.1601 32.4824 36.0838 32.3458 36.1497 32.2333C36.3541 32.3077 36.4714 32.4985 36.5841 32.6464C36.9443 33.1175 37.3643 33.5393 37.8033 33.9169C38.3418 34.3803 38.8005 34.9315 39.3854 35.3399C39.5262 35.4383 39.6775 35.5213 39.8181 35.6197C39.9723 35.7275 40.0308 35.5584 40.1341 35.5208C40.1181 35.6601 40.0598 35.7806 39.9697 35.8866C39.856 36.089 39.7063 36.1118 39.5092 35.9977C39.0781 35.7487 38.7412 35.3863 38.3861 35.0518C37.6566 34.3647 36.9751 33.6263 36.2294 32.9343C36.1782 33.117 36.2249 33.2699 36.2633 33.4243C36.2916 33.5783 36.2967 33.7323 36.2757 33.8878C36.2628 33.9489 36.2376 34.0029 36.1858 34.0413C36.0494 33.7443 36.0367 33.4281 36.0398 33.109C36.0414 32.9242 36.0406 32.7393 36.0406 32.5547Z" fill="#D7D7DB"/>
<path d="M36.1901 33.3685C36.0425 33.1802 36.1454 32.9706 36.1155 32.7207C36.3846 32.9059 36.5618 33.1217 36.758 33.3123C37.2614 33.8008 37.7482 34.3064 38.2505 34.7965C38.5928 35.1304 38.954 35.4454 39.2984 35.7777C39.41 35.8855 39.5635 35.8953 39.6825 35.9877C39.802 36.0808 39.8674 35.9074 39.9697 35.8866C39.9589 36.0031 39.9018 36.0975 39.8303 36.1856C39.6986 36.436 39.5496 36.4949 39.2881 36.3137C39.0753 36.1664 38.8769 36.0024 38.6878 35.834C37.9108 35.1442 37.1738 34.4111 36.44 33.6752C36.3453 33.5803 36.3278 33.4259 36.1901 33.3685Z" fill="#D7D7DB"/>
<path d="M34.4166 44.7731C34.2829 44.6357 34.1139 44.7095 33.9601 44.7008C33.8643 44.6954 33.7617 44.7022 33.6712 44.7137C33.2152 44.7734 32.8062 44.5679 32.3791 44.489C32.0283 44.4243 31.6371 44.275 31.3864 44.0351C30.927 43.5949 30.3126 43.2834 30.0785 42.6308C29.7014 42.3097 29.7204 41.8112 29.5445 41.4008C29.4628 41.2104 29.2774 41.0257 29.395 40.7943C29.2661 40.7151 29.2218 40.8465 29.1392 40.8415C29.1988 40.686 29.3127 40.5738 29.4374 40.4706C29.7 40.5687 29.6748 40.8237 29.6884 41.0172C29.7121 41.3655 29.7628 41.6937 29.9649 41.9848C30.1446 42.2443 30.2575 42.5378 30.4429 42.8018C30.9463 43.5194 31.6484 43.9203 32.4218 44.2447C32.8945 44.4433 33.397 44.4529 33.8956 44.4692C34.1565 44.4779 34.1958 44.4279 34.2668 44.1755C34.4358 44.3022 34.5919 44.448 34.7872 44.537C34.58 44.4848 34.5517 44.7126 34.4166 44.7731Z" fill="#D7D7DB"/>
<path d="M61.0658 28.1863C60.8784 28.2002 60.6998 28.1811 60.5551 28.043C60.4536 27.9459 60.317 27.9364 60.1938 27.8919C60.0547 27.8416 59.99 27.7454 60.1206 27.6174C60.2141 27.5257 60.2679 27.4245 60.2484 27.2913C60.4434 26.8641 60.6749 26.4596 60.9895 26.1073C61.0525 26.3188 61.1212 26.5175 61.3522 26.6207C61.5517 26.7097 61.5945 26.8827 61.5178 27.0849L61.522 27.0788C61.4327 27.1342 61.5003 27.2446 61.441 27.3107C61.3635 27.7204 61.2391 28.1156 61.0717 28.4975C61.0698 28.3939 61.0676 28.2901 61.0658 28.1862V28.1863Z" fill="#D7D7DB"/>
<path d="M36.1901 33.3685C36.2537 33.288 36.3456 33.3018 36.3631 33.3784C36.4273 33.6571 36.6834 33.7798 36.8515 33.9545C37.2125 34.3294 37.5613 34.7248 37.9543 35.0612C38.348 35.3975 38.7121 35.7653 39.1101 36.0949C39.2399 36.2023 39.4185 36.2394 39.5437 36.364C39.5822 36.4021 39.6361 36.3733 39.6658 36.3249C39.7057 36.2606 39.7537 36.2062 39.8306 36.1856C39.7808 36.3724 39.687 36.5381 39.5841 36.6995C39.4227 36.8171 39.2611 36.7502 39.1426 36.6509C38.1086 35.7851 37.1116 34.8788 36.1932 33.8889C36.1923 33.7153 36.1909 33.5421 36.1901 33.3685Z" fill="#D7D7DB"/>
<path d="M39.4668 36.9256C39.4133 37.1122 39.3151 37.2767 39.2129 37.4393C38.9572 37.5523 38.8054 37.3711 38.6374 37.236C37.9124 36.6529 37.2801 35.9725 36.6229 35.3178C36.5881 35.283 36.5426 35.2622 36.5 35.2375C36.4456 35.0266 36.3349 34.8325 36.306 34.6148C36.2969 34.5467 36.2735 34.4591 36.3458 34.4113C36.4199 34.3622 36.4852 34.4195 36.5431 34.4619C36.643 34.534 36.7232 34.6282 36.812 34.7126C37.4674 35.3379 38.0594 36.0296 38.7994 36.5672C39.0105 36.7205 39.2093 36.8705 39.4668 36.9256Z" fill="#D7D7DB"/>
<path d="M39.4668 36.9256C39.3241 36.9975 39.2025 37 39.0626 36.8881C38.6148 36.5299 38.1467 36.1981 37.7476 35.7811C37.3815 35.3986 37.0023 35.029 36.6252 34.6575C36.5497 34.5832 36.4931 34.4783 36.3481 34.4568C36.3523 34.7369 36.4621 34.9766 36.5601 35.2194C36.6426 35.3207 36.65 35.4213 36.5576 35.5211C36.3496 35.3207 36.3812 35.0284 36.3003 34.7838C36.2246 34.5557 36.1658 34.2973 36.1858 34.0413C36.1884 33.9904 36.1907 33.9396 36.1932 33.8889C36.3304 33.9472 36.4502 34.028 36.5536 34.1377C37.2173 34.8427 37.9293 35.4993 38.6629 36.1265C38.8891 36.3202 39.0745 36.607 39.403 36.6752C39.4626 36.6873 39.5236 36.6916 39.5841 36.6995C39.5706 36.7882 39.5258 36.8607 39.4668 36.9256Z" fill="#D7D7DB"/>
<path d="M36.5576 35.5211C36.5584 35.4204 36.5593 35.3198 36.5602 35.2194C36.5873 35.1844 36.6277 35.1751 36.6526 35.2076C37.0229 35.6938 37.5107 36.0667 37.9325 36.5025C38.2935 36.8759 38.6632 37.2979 39.2129 37.4393C39.1949 37.5272 39.1545 37.6029 39.0903 37.666C38.878 37.8972 38.6977 37.833 38.501 37.6286C38.0495 37.1591 37.5727 36.7159 37.0563 36.3173C36.909 36.2035 37.0235 36.4553 36.9248 36.4155C36.7051 36.1571 36.6183 35.8442 36.5576 35.5211Z" fill="#D7D7DB"/>
<path d="M61.5178 27.0849C61.556 26.8449 61.3946 26.7383 61.2221 26.6359C60.9081 26.4494 60.909 26.4482 60.9895 26.1077C61.0045 25.9298 61.132 25.8114 61.2181 25.6712C61.2636 25.6186 61.3145 25.5706 61.3567 25.5146C61.4248 25.3017 61.5138 25.103 61.7267 24.9925C61.8681 25.0894 62.0464 25.1155 62.181 25.2257C62.1767 25.2506 62.1725 25.2755 62.1682 25.3003C62.0973 25.3945 62.0631 25.5038 62.0366 25.6163C61.8847 26.1133 61.723 26.6069 61.5178 27.0849Z" fill="#D7D7DB"/>
<path d="M35.1378 12.4214C35.3257 12.4702 35.4786 12.5856 35.5784 12.7394C35.81 13.0964 36.1322 13.3635 36.4496 13.6275C36.8883 13.9919 37.3326 14.3534 37.8282 14.6431C37.9019 14.6864 37.9726 14.7649 38.0484 14.7698C38.2652 14.7836 38.2705 14.9207 38.2635 15.0778C37.1275 14.7189 36.2337 14.0267 35.5295 13.0792C35.3775 12.8748 35.2101 12.6752 35.1378 12.4214Z" fill="#D7D7DB"/>
<path d="M36.9247 36.4151C36.9581 36.3043 36.8804 36.2046 36.888 36.0578C37.3384 36.4688 37.8364 36.779 38.2214 37.2227C38.3553 37.3771 38.5269 37.4904 38.6508 37.6614C38.7684 37.8234 38.9416 37.7143 39.0903 37.666C39.0233 37.8568 38.9371 38.0376 38.8065 38.1943C38.5753 38.2313 38.452 38.0481 38.3116 37.9283C38.0597 37.7132 37.8033 37.4998 37.5888 37.2423C37.5178 37.1566 37.4406 37.0184 37.2951 37.1563C37.109 36.9403 36.9545 36.7091 36.9247 36.4151Z" fill="#D7D7DB"/>
<path d="M62.1809 25.2257C61.9978 25.2099 61.7635 25.2938 61.7267 24.9925C61.7773 24.6889 62.0166 24.4998 62.1701 24.2584C62.2301 24.1906 62.2284 24.0812 62.3208 24.0351C62.634 23.4771 63.0388 22.9842 63.4331 22.4841C63.4758 22.4451 63.4999 22.3676 63.5824 22.4114C63.2598 23.0132 62.917 23.6041 62.6312 24.2262C62.4788 24.5583 62.3814 24.9154 62.1809 25.2257Z" fill="#D7D7DB"/>
<path d="M37.2951 37.1563C37.3042 37.0489 37.2872 36.9031 37.4687 37.0107C37.5407 37.0537 37.6071 37.1133 37.662 37.1775C37.9964 37.5699 38.3865 37.8988 38.8065 38.1945C38.7491 38.4261 38.5369 38.5962 38.5445 38.854C38.2604 38.5547 37.9681 38.2621 37.7398 37.9155C37.707 37.8658 37.6891 37.8067 37.6642 37.7519C37.541 37.5766 37.4127 37.4048 37.3064 37.2182C37.2971 37.1984 37.2933 37.178 37.2951 37.1563Z" fill="#D7D7DB"/>
<path d="M42.5645 27.2573C42.5645 26.7928 42.5643 26.3284 42.5643 25.8636C42.6527 26.3281 42.6533 26.7928 42.5645 27.2573Z" fill="#D7D7DB"/>
<path d="M42.1934 29.6016C42.1598 29.3162 42.2833 29.0473 42.2824 28.7639C42.2822 28.6847 42.3346 28.5996 42.4227 28.5599C42.3687 28.9119 42.3514 29.2722 42.1934 29.6016Z" fill="#D7D7DB"/>
<path d="M63.5824 22.4114C63.5327 22.4355 63.4829 22.4598 63.4331 22.4841C63.5001 22.2871 63.5983 22.117 63.8096 22.0434C63.7794 22.194 63.6754 22.2995 63.5824 22.4114Z" fill="#D7D7DB"/>
<path d="M45.0004 12.3428C45.0507 12.3185 45.1013 12.2939 45.1515 12.2696C45.0835 12.5019 44.9594 12.7012 44.7954 12.877L44.7706 12.8536C44.6744 12.6057 44.8734 12.4903 45.0004 12.3428Z" fill="#D7D7DB"/>
<path d="M58.1113 36.4228C58.0995 36.2266 58.1453 36.0589 58.3386 35.9643C58.2914 36.1314 58.2314 36.2921 58.1113 36.4228Z" fill="#D7D7DB"/>
<path d="M55.9642 40.05C55.9817 39.8682 56.0682 39.7351 56.2386 39.6613C56.1776 39.8123 56.0931 39.9469 55.9642 40.05Z" fill="#D7D7DB"/>
<path d="M52.1835 44.1088C52.2347 43.9186 52.3834 43.8497 52.5555 43.8098C52.4619 43.9472 52.3361 44.0447 52.1835 44.1088Z" fill="#D7D7DB"/>
<path d="M41.8947 15.0923C41.9653 14.9006 42.1226 14.9309 42.2732 14.9456C42.1618 15.0324 42.0358 15.0813 41.8947 15.0923Z" fill="#D7D7DB"/>
<path d="M20.2074 40.2651C20.2261 40.1291 20.1067 39.9463 20.3382 39.8835C20.3281 40.0223 20.2731 40.1453 20.2074 40.2651Z" fill="#D7D7DB"/>
<path d="M36.6271 5.21524C36.6002 5.33571 36.5121 5.40273 36.4134 5.46092C36.3996 5.46887 36.3857 5.47704 36.3719 5.48521C36.3597 5.47483 36.3476 5.46456 36.3351 5.45418C36.4088 5.34564 36.5058 5.26559 36.6271 5.21524Z" fill="#D7D7DB"/>
<path d="M15.1547 47.8757C15.0845 47.8228 15.1594 47.7793 15.1641 47.7312C15.1952 47.6405 15.2579 47.6066 15.351 47.6275C15.3634 47.638 15.3755 47.6484 15.3877 47.6589C15.3354 47.7583 15.2501 47.8225 15.1547 47.8757Z" fill="#D7D7DB"/>
<path d="M32.3518 47.0848C32.3792 46.9601 32.4586 46.886 32.5785 46.851C32.5414 46.9663 32.4623 47.041 32.3518 47.0848Z" fill="#D7D7DB"/>
<path d="M62.0366 25.6163C62.0179 25.4849 62.0306 25.3668 62.1682 25.3003C62.1538 25.4179 62.1083 25.5225 62.0366 25.6163Z" fill="#D7D7DB"/>
<path d="M35.4422 6.48338C35.4447 6.60738 35.3986 6.70974 35.3034 6.78979C35.2825 6.7719 35.2742 6.75324 35.2793 6.73381C35.2845 6.71338 35.2901 6.70322 35.2963 6.70322C35.3102 6.60683 35.3647 6.53738 35.4422 6.48338Z" fill="#D7D7DB"/>
<path d="M41.0116 15.3085C40.9848 15.3038 40.9579 15.2994 40.931 15.2947C41.0486 15.1842 41.1905 15.2424 41.3233 15.2387C41.2304 15.3088 41.1213 15.3105 41.0116 15.3085Z" fill="#D7D7DB"/>
<path d="M42.4832 14.8608C42.5074 14.8113 42.5324 14.7618 42.5569 14.7127C42.631 14.7124 42.7051 14.7121 42.7791 14.7118C42.6991 14.7986 42.5991 14.8459 42.4832 14.8608Z" fill="#D7D7DB"/>
<path d="M58.3347 35.9699C58.3151 35.8368 58.3352 35.7217 58.478 35.6646C58.4689 35.7848 58.4135 35.8832 58.3347 35.9699Z" fill="#D7D7DB"/>
<path d="M40.3464 35.0279C40.3383 34.8938 40.3772 34.7811 40.4934 34.7036C40.4903 34.8322 40.4403 34.9399 40.3464 35.0279Z" fill="#D7D7DB"/>
<path d="M35.5239 6.49376C35.4956 6.49155 35.4673 6.48901 35.4387 6.48669C35.4557 6.38809 35.5137 6.31764 35.5945 6.26343C35.6052 6.35077 35.5561 6.41978 35.5239 6.49376Z" fill="#D7D7DB"/>
<path d="M34.0429 45.0659C34.0983 45.0447 34.1538 45.0235 34.2091 45.0021C34.1924 45.1032 34.1283 45.168 34.0443 45.2174C34.0438 45.1672 34.0435 45.1165 34.0429 45.0659Z" fill="#D7D7DB"/>
<path d="M25.3017 44.6097C25.2719 44.7208 25.1955 44.7686 25.0848 44.77C25.1386 44.6917 25.2026 44.627 25.3017 44.6097Z" fill="#D7D7DB"/>
<path d="M43.4496 14.2773C43.4805 14.1711 43.5548 14.1222 43.6622 14.1168C43.6116 14.197 43.5508 14.2641 43.4496 14.2773Z" fill="#D7D7DB"/>
<path d="M17.2393 45.6618C17.2384 45.5459 17.2883 45.4685 17.4059 45.4422C17.3813 45.5392 17.3226 45.6101 17.2393 45.6618Z" fill="#D7D7DB"/>
<path d="M24.9227 44.8952C24.9195 44.9854 24.8629 45.0337 24.788 45.0677C24.7591 45.0654 24.7304 45.0632 24.7015 45.0606C24.7541 44.9771 24.8284 44.9226 24.9227 44.8952Z" fill="#D7D7DB"/>
<path d="M44.4115 13.3847C44.4095 13.2637 44.4604 13.1852 44.5856 13.166C44.5579 13.2631 44.5006 13.3367 44.4115 13.3847Z" fill="#D7D7DB"/>
<path d="M29.3829 49.8176C29.4108 49.7113 29.4843 49.6618 29.5892 49.6511C29.5403 49.7314 29.4782 49.7947 29.3829 49.8176Z" fill="#D7D7DB"/>
<path d="M19.0922 42.8513C19.0876 42.7489 19.0729 42.6409 19.219 42.6226C19.1957 42.7091 19.1632 42.7908 19.0922 42.8513Z" fill="#D7D7DB"/>
<path d="M31.8319 47.6204C31.8417 47.4992 31.9175 47.4457 32.0292 47.4291C31.9865 47.5166 31.924 47.5837 31.8319 47.6204Z" fill="#D7D7DB"/>
<path d="M25.8258 44.1786C25.8185 44.2891 25.7548 44.3279 25.6514 44.3163C25.6896 44.2451 25.7509 44.2032 25.8258 44.1786Z" fill="#D7D7DB"/>
<path d="M43.6675 13.9718C43.7221 13.9738 43.7769 13.9761 43.8315 13.9783C43.7976 14.0501 43.7416 14.095 43.6653 14.1148C43.6658 14.0671 43.6667 14.0193 43.6675 13.9718Z" fill="#D7D7DB"/>
<path d="M61.441 27.3107C61.4386 27.2231 61.4172 27.1288 61.522 27.0787C61.522 27.1655 61.4968 27.2435 61.441 27.3107Z" fill="#D7D7DB"/>
<path d="M27.2292 42.9145C27.2289 43.0197 27.1746 43.0671 27.0713 43.0624C27.1087 42.9968 27.1501 42.9357 27.2292 42.9145Z" fill="#D7D7DB"/>
<path d="M17.9901 44.6372C17.9739 44.5413 18.0098 44.4837 18.1103 44.4734C18.0938 44.5453 18.0545 44.6006 17.9901 44.6372Z" fill="#D7D7DB"/>
<path d="M32.2021 47.2475C32.2112 47.1504 32.2612 47.091 32.3599 47.076C32.3415 47.1645 32.2804 47.2142 32.2021 47.2475Z" fill="#D7D7DB"/>
<path d="M15.6128 47.4423C15.6106 47.3347 15.6658 47.2874 15.7706 47.2925C15.7357 47.3612 15.6875 47.4158 15.6128 47.4423Z" fill="#D7D7DB"/>
<path d="M28.1827 41.9419C28.1953 42.0524 28.1447 42.1028 28.035 42.0971C28.0586 42.0207 28.1117 41.973 28.1827 41.9419Z" fill="#D7D7DB"/>
<path d="M42.2672 14.9504C42.298 14.8656 42.3659 14.862 42.4397 14.8713C42.3942 14.9233 42.3353 14.947 42.2672 14.9504Z" fill="#D7D7DB"/>
<path d="M16.6537 46.3602C16.6626 46.3044 16.6942 46.2698 16.7504 46.2585C16.7182 46.2928 16.686 46.3263 16.6537 46.3602Z" fill="#D7D7DB"/>
<path d="M34.1998 45.0083C34.208 44.9628 34.2348 44.9351 34.2801 44.9251C34.2733 44.9721 34.2459 44.9992 34.1998 45.0083Z" fill="#D7D7DB"/>
<path d="M52.5536 43.8118C52.5672 43.7719 52.5942 43.7473 52.6352 43.7377C52.6081 43.7623 52.5806 43.7872 52.5536 43.8118Z" fill="#D7D7DB"/>
<path d="M25.3784 44.5419C25.3647 44.5823 25.3373 44.6075 25.2955 44.6162C25.3059 44.5721 25.3318 44.5455 25.3784 44.5419Z" fill="#D7D7DB"/>
<path d="M36.2568 5.52485C36.2661 5.48267 36.2927 5.45948 36.3351 5.45418L36.3438 5.46577C36.3516 5.50243 36.338 5.52871 36.3038 5.54406C36.2882 5.53776 36.2724 5.53136 36.2568 5.52485Z" fill="#D7D7DB"/>
<path d="M36.1838 5.5997C36.1918 5.55874 36.2155 5.53323 36.2568 5.52484L36.2684 5.53577C36.2802 5.59429 36.2545 5.61781 36.1974 5.61097L36.1838 5.5997Z" fill="#D7D7DB"/>
<path d="M35.2963 6.70322C35.2988 6.73204 35.3011 6.76096 35.3033 6.78978L35.3014 6.79177C35.2852 6.81805 35.2655 6.82169 35.2412 6.8027L35.231 6.79343C35.2316 6.74794 35.2548 6.71879 35.2963 6.70322Z" fill="#D7D7DB"/>
<path d="M15.5367 47.515C15.5492 47.4751 15.5756 47.4497 15.6158 47.4383C15.5894 47.4638 15.5631 47.4896 15.5367 47.515Z" fill="#D7D7DB"/>
<path d="M28.0411 42.0931C28.0287 42.1381 27.9998 42.1644 27.9544 42.1736C27.9833 42.1468 28.0122 42.12 28.0411 42.0931Z" fill="#D7D7DB"/>
<path d="M15.4638 47.5862C15.4516 47.6244 15.4276 47.6498 15.3876 47.6589C15.3877 47.6589 15.3824 47.6518 15.3824 47.6518C15.376 47.6168 15.3875 47.5887 15.4171 47.5686C15.4326 47.5746 15.4483 47.5806 15.4638 47.5862Z" fill="#D7D7DB"/>
<path d="M34.3428 44.8528C34.3677 44.8257 34.3926 44.7985 34.4175 44.7714C34.4104 44.8149 34.3867 44.8429 34.3428 44.8528Z" fill="#D7D7DB"/>
<path d="M34.2725 44.932C34.281 44.8887 34.3064 44.8608 34.3483 44.8474C34.3378 44.8887 34.3169 44.9206 34.2725 44.932Z" fill="#D7D7DB"/>
<path d="M29.7526 49.5197C29.765 49.4764 29.793 49.4498 29.8377 49.4417C29.8261 49.486 29.7964 49.5103 29.7526 49.5197Z" fill="#D7D7DB"/>
<path d="M15.4602 47.509C15.4865 47.5102 15.5129 47.5113 15.5393 47.5128C15.5322 47.5557 15.5055 47.5786 15.4637 47.5862L15.4547 47.5795C15.4359 47.5622 15.4304 47.5461 15.4383 47.5308C15.4461 47.5161 15.4532 47.509 15.4602 47.509Z" fill="#D7D7DB"/>
<path d="M49.1462 39.2175C49.1889 39.3792 48.9127 39.3306 48.9642 39.4861C49.0048 39.6093 49.1623 39.5691 49.2395 39.6501C49.4088 39.8275 49.6497 39.8626 49.8591 39.9598C50.244 40.139 50.6376 40.2964 51.0124 40.5023C51.308 40.6648 51.6422 40.7612 51.9638 40.8734C52.2587 40.9766 52.5869 41.0156 52.8498 41.1696C53.0869 41.3084 53.3594 41.2392 53.5808 41.3927C53.7851 41.5343 54.0177 41.5973 54.2764 41.5981C54.4658 41.5985 54.5246 41.7596 54.4056 41.9076C54.3215 42.012 54.232 42.1171 54.1065 42.1787C53.8382 42.1028 53.5476 42.101 53.313 41.9111C53.2577 41.8661 53.1466 41.8831 53.0615 41.8842C52.9221 41.8862 52.7901 41.8786 52.6895 41.7636C52.6654 41.7361 52.6301 41.6956 52.603 41.698C52.2126 41.7308 51.9178 41.4715 51.5811 41.3497C51.3111 41.2519 51.0409 41.1408 50.7702 41.0422C50.2531 40.8536 49.7924 40.5488 49.2695 40.3694C48.9766 40.2687 48.6507 40.1913 48.4217 39.94C48.3271 39.8365 48.2371 39.7405 48.2581 39.5878C48.4794 39.566 48.6515 39.4272 48.8437 39.3379C48.943 39.2919 49.0309 39.2217 49.1462 39.2175Z" fill="#D7D7DB"/>
<path d="M32.7198 42.5406C32.6941 42.7319 32.8972 42.7922 32.9682 42.964C32.7044 43.0254 32.5027 42.8848 32.326 42.7746C31.9399 42.5335 31.6261 42.1992 31.3219 41.8611C31.2035 41.7293 31.178 41.5512 31.1026 41.3975C30.8997 40.9825 30.8284 40.5399 30.8547 40.076C30.8665 39.8686 30.9895 39.9618 31.0825 39.9572L31.0823 39.957C31.1814 40.1551 31.2465 40.3714 31.3895 40.5466C31.7352 41.021 32.0563 41.5111 32.3433 42.0233C32.4176 42.1042 32.4515 42.22 32.5564 42.2746C32.5798 42.2955 32.5993 42.3198 32.6151 42.347C32.6466 42.4142 32.6502 42.4962 32.7178 42.5445L32.7198 42.5406Z" fill="#D7D7DB"/>
<path d="M37.3063 37.2182C37.4378 37.3231 37.6012 37.5659 37.6642 37.7516C37.4656 37.627 37.355 37.4435 37.3063 37.2182Z" fill="#D7D7DB"/>
<path d="M34.2674 44.1761C34.0051 44.093 33.8335 43.9186 33.7473 43.6585C33.9494 43.8021 34.121 43.9765 34.2674 44.1761Z" fill="#D7D7DB"/>
<path d="M31.3895 40.5466C31.1741 40.409 31.0975 40.1989 31.0823 39.957C31.2572 40.1156 31.3369 40.3242 31.3895 40.5466Z" fill="#D7D7DB"/>
<path d="M55.8079 33.736C55.7528 33.9409 55.6403 34.0987 55.4388 34.1826C55.4972 33.9806 55.612 33.8248 55.8079 33.736Z" fill="#D7D7DB"/>
<path d="M32.5606 42.3271C32.382 42.3017 32.364 42.1618 32.3433 42.0233C32.4544 42.0245 32.4812 42.1343 32.5536 42.1856C32.6062 42.2302 32.6076 42.2774 32.5606 42.3271Z" fill="#D7D7DB"/>
<path d="M49.6646 38.9954C49.6397 38.9954 49.6149 38.9954 49.5906 38.9954C49.6654 38.8992 49.7689 38.8591 49.8865 38.8472C49.8798 38.997 49.772 38.9962 49.6646 38.9954Z" fill="#D7D7DB"/>
<path d="M30.8593 39.4397C30.7258 39.3812 30.7009 39.2704 30.7139 39.1409C30.8397 39.2029 30.8705 39.3111 30.8593 39.4397Z" fill="#D7D7DB"/>
<path d="M36.782 27.9639C36.7532 28.0955 36.7314 28.23 36.6339 28.334C36.6353 28.1914 36.6102 28.0381 36.782 27.9639Z" fill="#D7D7DB"/>
<path d="M32.5606 42.3271C32.5584 42.28 32.5561 42.2327 32.5535 42.1856C32.663 42.2169 32.7088 42.2936 32.7084 42.4032C32.6575 42.4427 32.6093 42.4473 32.5655 42.3927C32.566 42.3707 32.5646 42.349 32.5606 42.3271Z" fill="#D7D7DB"/>
<path d="M33.298 43.1441C33.1567 43.1334 33.1293 43.0151 33.0829 42.9151C33.2237 42.9267 33.252 43.0437 33.298 43.1441Z" fill="#D7D7DB"/>
<path d="M61.3569 25.5146C61.3626 25.613 61.3145 25.6636 61.2181 25.6712C61.2134 25.5739 61.2654 25.5268 61.3569 25.5146Z" fill="#D7D7DB"/>
<path d="M58.1781 30.5543C58.1761 30.6509 58.1269 30.7008 58.0303 30.7034C58.0308 30.642 58.0446 30.5871 58.1023 30.5531C58.128 30.5184 58.1535 30.5204 58.1781 30.5543Z" fill="#D7D7DB"/>
<path d="M62.3209 24.0351C62.2844 24.1191 62.2627 24.2124 62.1705 24.2587C62.1739 24.1527 62.1797 24.0487 62.3209 24.0351Z" fill="#D7D7DB"/>
<path d="M37.3007 26.7794C37.3004 26.8862 37.2507 26.9601 37.1526 27.0017C37.1526 26.8948 37.2023 26.821 37.3007 26.7794Z" fill="#D7D7DB"/>
<path d="M58.1782 30.5543C58.1526 30.554 58.1278 30.5536 58.1023 30.5531C58.1048 30.4479 58.1537 30.3738 58.251 30.3321C58.2578 30.4164 58.2083 30.4822 58.1782 30.5543Z" fill="#D7D7DB"/>
<path d="M32.5654 42.3927C32.6132 42.3961 32.6607 42.3998 32.7084 42.4032C32.7115 42.4505 32.7147 42.4976 32.7178 42.5445C32.6383 42.523 32.5877 42.4722 32.5654 42.3927Z" fill="#D7D7DB"/>
<path d="M49.5165 39.0691C49.4846 39.1288 49.4292 39.1418 49.3681 39.1432C49.4 39.0838 49.4551 39.0706 49.5165 39.0691Z" fill="#D7D7DB"/>
<path d="M15.4602 47.509C15.4595 47.5325 15.4577 47.5559 15.4547 47.5791C15.4307 47.6034 15.4065 47.6278 15.3824 47.6518C15.3095 47.6784 15.2368 47.7049 15.1641 47.7312H15.1642C14.7399 47.573 14.2799 47.5749 13.8501 47.4376C13.7703 47.4119 13.6813 47.4141 13.6093 47.3612C13.5601 47.3612 13.5106 47.3612 13.4614 47.3612C13.0368 47.1671 12.5758 47.104 12.1287 46.9909C11.7353 47.0274 11.3813 46.9185 11.059 46.6976C10.9643 46.6322 10.8721 46.5838 10.7516 46.6797C10.8494 46.8931 11.1624 46.8445 11.2377 47.0749C10.733 46.9011 10.287 46.632 9.90591 46.2571C9.84927 46.2127 9.80024 46.1605 9.75475 46.1051L9.75718 46.1076C9.70705 46.0482 9.62799 46.038 9.56759 45.9956C9.53115 45.9652 9.50543 45.9315 9.53336 45.8817C9.90392 45.8125 10.1842 46.0677 10.5116 46.1502C11.0283 46.2808 11.4891 46.572 12.033 46.6336C12.2778 46.6613 12.5103 46.8078 12.7444 46.9098C12.8113 46.9389 12.8713 47.0017 12.9463 46.9873C13.3976 46.8993 13.7805 47.1388 14.186 47.2533C14.4516 47.3278 14.7115 47.3813 14.9831 47.3584C15.1682 47.3425 15.3201 47.3988 15.4602 47.509Z" fill="#D7D7DB"/>
<path d="M12.2023 47.5845C12.3492 47.5741 12.4753 47.6173 12.5747 47.7293C12.4274 47.7402 12.3006 47.6993 12.2023 47.5845Z" fill="#D7D7DB"/>
<path d="M9.53334 45.8817C9.5584 45.9063 9.58336 45.9309 9.60853 45.9556C9.65568 45.9998 9.6538 46.0474 9.61725 46.0971C9.51004 46.0573 9.43783 45.9813 9.39001 45.8797C9.43783 45.8806 9.48553 45.8811 9.53334 45.8817Z" fill="#D7D7DB"/>
<path d="M9.61726 46.0971C9.61427 46.0496 9.6114 46.0025 9.60864 45.9552C9.68262 45.9824 9.73319 46.0319 9.75715 46.1076C9.71045 46.1042 9.66385 46.1005 9.61726 46.0971Z" fill="#D7D7DB"/>
<path d="M9.75476 46.1051C9.83183 46.1293 9.88218 46.1799 9.90592 46.2571C9.8135 46.248 9.75896 46.2015 9.75476 46.1051Z" fill="#D7D7DB"/>
<path d="M12.6456 41.0673C12.6914 40.9427 12.7522 40.8277 12.8587 40.7431C12.854 40.8946 12.8354 41.0373 12.6456 41.0673Z" fill="#D7D7DB"/>
<path d="M36.1974 5.61097C36.2212 5.58612 36.2447 5.56095 36.2684 5.53577C36.2936 5.51236 36.3188 5.48896 36.3439 5.46577C36.367 5.46201 36.3902 5.46036 36.4134 5.46069C36.3795 5.94708 36.4955 6.41017 36.6249 6.8726C36.6874 7.09619 36.7405 7.32365 36.7781 7.55299C36.8086 7.7375 36.8649 7.91052 36.9443 8.07725C37.1905 8.59456 37.4449 9.11297 37.7833 9.57175C38.0569 9.94287 38.3515 10.3169 38.7251 10.5962C38.9235 10.7443 39.0728 10.9365 39.2729 11.082C39.7009 11.3935 40.1204 11.7088 40.6453 11.8436C40.7129 11.8608 40.7691 11.9216 40.8319 11.9603C41.097 12.1239 41.3859 12.2178 41.6959 12.2455C41.7194 12.2475 41.7506 12.2263 41.7678 12.2354C42.2498 12.4929 42.782 12.4798 43.3033 12.5361C43.4508 12.5519 43.6034 12.5892 43.7422 12.5584C44.1585 12.4666 44.6043 12.5463 45.0004 12.3428C44.9812 12.5389 44.7855 12.6554 44.7706 12.8536C44.6072 12.9109 44.4415 12.94 44.2651 12.9378C43.686 12.9304 43.1067 12.9344 42.5276 12.9353C42.3795 12.9355 42.2491 12.9013 42.1067 12.8417C41.8158 12.7204 41.5063 12.6305 41.1962 12.5754C41.0218 12.5443 40.8629 12.5002 40.7111 12.4185C40.3177 12.2071 39.8634 12.1042 39.5211 11.8079C39.245 11.5689 38.8817 11.4405 38.6643 11.1338C38.5758 11.0094 38.4492 10.9331 38.3412 10.835C37.9197 10.4526 37.6396 9.94828 37.2253 9.5616C37.1382 9.21389 36.7868 8.99515 36.7628 8.61609C36.7615 8.5929 36.7475 8.56861 36.7337 8.54885C36.3654 8.02646 36.2764 7.40117 36.1404 6.80502C36.053 6.42254 35.9142 5.99434 36.1974 5.61097Z" fill="#D7D7DB"/>
<path d="M35.2412 6.80271C35.2607 6.79564 35.2807 6.792 35.3014 6.79178C35.4432 7.23919 35.6222 7.67424 35.6841 8.14682C35.7036 8.29522 35.8268 8.42728 35.8845 8.57392C36.1734 9.31316 36.6214 9.95116 37.082 10.5917C37.3872 11.0162 37.7702 11.3557 38.125 11.7215C38.2982 11.9004 38.5328 12.0551 38.7488 12.2085C39.0451 12.4197 39.3939 12.5466 39.6584 12.8069C39.847 12.9921 40.1297 12.972 40.3586 13.0783C40.472 13.1308 40.5505 13.1763 40.5581 13.3053C40.3165 13.3293 40.1259 13.2412 39.9123 13.1173C39.5758 12.9223 39.2172 12.7597 38.8913 12.5443C38.2281 12.1062 37.6441 11.5805 37.1266 10.9738C36.6893 10.4611 36.3195 9.90677 36.008 9.31394C35.865 9.04154 35.6804 8.79354 35.6426 8.4561C35.6208 8.26133 35.5182 8.03232 35.4213 7.85598C35.2838 7.60467 35.3738 7.31836 35.2131 7.0877C35.1555 7.00433 35.2454 6.90032 35.2412 6.80271Z" fill="#D7D7DB"/>
<path d="M41.4469 15.1556C41.4217 15.1559 41.3974 15.1559 41.3726 15.1559C41.0147 14.9956 40.6102 14.9747 40.262 14.7859C40.2125 14.7859 40.1633 14.7859 40.1141 14.7859C40.0389 14.6889 39.9013 14.7181 39.8179 14.6377C39.7933 14.6377 39.7684 14.6377 39.7438 14.6377C39.646 14.5208 39.493 14.4958 39.3736 14.4156C39.3489 14.4156 39.3241 14.4156 39.2995 14.4156C39.0801 14.2873 38.8463 14.1849 38.6332 14.0455C38.6084 14.0455 38.5838 14.0455 38.5591 14.0455C38.3348 13.9653 38.2005 13.7411 37.967 13.6753C37.8126 13.5597 37.6888 13.4068 37.5226 13.3053C37.1693 13.1448 36.9214 12.848 36.6509 12.5907C36.2893 12.2466 35.9275 11.8936 35.6717 11.454C35.4433 11.4332 35.4037 11.2259 35.3127 11.0775C35.1049 10.7398 34.9325 10.3779 34.7036 10.0563C34.5447 9.83356 34.4519 9.61869 34.4867 9.34849C34.4978 9.26391 34.493 9.17713 34.4955 9.09155C34.7519 9.25287 34.7864 9.5542 34.9246 9.78884C34.9633 9.85476 34.9667 9.9474 35.014 10.0238C35.3684 10.5968 35.7379 11.1638 36.1666 11.6796C36.4382 12.0061 36.6537 12.4143 37.0878 12.5845C37.383 13.0401 37.9492 13.1798 38.2725 13.6023C38.6349 13.6402 38.8268 14.0402 39.2008 14.0444C39.3834 14.0464 39.447 14.2186 39.5971 14.2822C39.973 14.4413 40.3954 14.4925 40.7309 14.7489C40.7663 14.776 40.8267 14.7888 40.8714 14.7823C41.2352 14.7283 41.536 14.8698 41.8174 15.0762C41.7431 15.0782 41.669 15.0802 41.5947 15.0821C41.5558 15.1273 41.4845 15.1084 41.4469 15.1556Z" fill="#D7D7DB"/>
<path d="M10.8387 43.28C10.8685 43.1847 10.9377 43.1257 11.0225 43.0813C11.0091 43.1918 10.9573 43.2664 10.8387 43.28Z" fill="#D7D7DB"/>
<path d="M9.90125 44.1739C9.93592 44.1074 9.97887 44.0506 10.0558 44.03C10.0521 44.1291 10.0011 44.1775 9.90125 44.1739Z" fill="#D7D7DB"/>
<path d="M35.6717 11.4544C35.9872 11.7893 36.2956 12.1313 36.6203 12.457C36.9115 12.749 37.221 13.0232 37.5226 13.3053C37.4364 13.305 37.3513 13.305 37.2798 13.2423C36.8314 12.8516 36.3501 12.4954 36.0095 11.9945C35.9549 11.9143 35.8814 11.845 35.8093 11.7789C35.7127 11.6901 35.657 11.5883 35.6717 11.4544Z" fill="#D7D7DB"/>
<path d="M40.262 14.7859C40.6068 14.7935 41.1817 14.9849 41.3725 15.1559C41.031 15.2119 40.7458 14.9838 40.4174 14.9662C40.332 14.9617 40.2653 14.8882 40.262 14.7859Z" fill="#D7D7DB"/>
<path d="M38.6332 14.0455C38.8808 14.1225 39.1256 14.2053 39.2995 14.4159C39.0049 14.423 38.8141 14.2426 38.6332 14.0455Z" fill="#D7D7DB"/>
<path d="M37.967 13.6753C38.2423 13.6739 38.3856 13.8842 38.5591 14.0455C38.2728 14.0645 38.1683 13.7926 37.967 13.6753Z" fill="#D7D7DB"/>
<path d="M37.5226 13.3053C37.7349 13.3519 37.8827 13.4755 37.967 13.6753C37.7462 13.6391 37.641 13.4641 37.5226 13.3053Z" fill="#D7D7DB"/>
<path d="M39.3735 14.4159C39.5349 14.4261 39.7019 14.4277 39.7438 14.6377C39.5908 14.6127 39.452 14.5643 39.3735 14.4159Z" fill="#D7D7DB"/>
<path d="M39.8179 14.6377C39.934 14.6516 40.0895 14.5877 40.1141 14.7859C39.9871 14.7926 39.8739 14.7726 39.8179 14.6377Z" fill="#D7D7DB"/>
<path d="M41.4468 15.1556C41.4785 15.0963 41.534 15.0836 41.5944 15.0822C41.5624 15.1412 41.5073 15.1543 41.4468 15.1556Z" fill="#D7D7DB"/>
<path d="M13.6094 47.3612C14.1076 47.3137 14.5616 47.5289 15.039 47.6052C15.1012 47.6154 15.1367 47.675 15.1642 47.7312C14.8641 47.7621 14.5641 47.6996 14.2677 47.6846C14.0545 47.6735 13.7832 47.5628 13.6094 47.3612Z" fill="#D7D7DB"/>
<path d="M12.1287 46.9912C12.4766 46.9627 12.8111 47.0272 13.1375 47.141C13.2644 47.1854 13.3978 47.2227 13.4614 47.3612C13.1765 47.3702 12.8937 47.37 12.6492 47.1888C12.5741 47.1332 12.4861 47.1376 12.4005 47.1399C12.2796 47.1428 12.1818 47.1091 12.1287 46.9912Z" fill="#D7D7DB"/>
<path d="M61.0657 28.1857C61.071 28.1756 61.0785 28.1564 61.0819 28.157C61.106 28.1621 61.1002 28.1734 61.0657 28.1856V28.1857Z" fill="#D7D7DB"/>
</g>
<g clip-path="url(#clip1_8_261)">
<path fill-rule="evenodd" clip-rule="evenodd" d="M169.783 48.0609C179.84 48.0609 187.989 39.8762 187.989 29.7804C187.989 19.6847 179.84 11.5 169.783 11.5C159.727 11.5 151.574 19.6847 151.574 29.7804C151.574 39.8762 159.727 48.0609 169.783 48.0609ZM159.697 28.82C159.72 35.7049 164.926 39.9906 169.927 39.9736C176.103 39.9534 179.756 34.8618 179.743 30.2136C179.726 25.5688 177.21 22.2103 171.667 20.8534C171.653 20.7963 171.643 20.672 171.643 20.5546C171.633 17.0449 174.27 13.9483 177.581 13.2598C177.27 13.1524 176.759 13.1121 176.27 13.1121C172.483 13.1256 168.305 14.7545 165.254 17.2868C162.129 19.8863 159.68 24.2692 159.697 28.82Z" fill="#D7D7DB"/>
<path d="M199.748 37.3506L194.181 24.0139H197.818L201.29 32.8703L204.656 24.0139H208.128L202.726 37.3506H199.748Z" fill="#D7D7DB"/>
<path d="M217.817 30.6134C217.817 30.0593 217.753 29.532 217.623 29.0316C217.496 28.5312 217.301 28.1013 217.044 27.7419C216.786 27.3792 216.475 27.0937 216.107 26.8821C215.739 26.6672 215.308 26.5597 214.813 26.5597C214.317 26.5597 213.882 26.6672 213.518 26.8821C213.15 27.0937 212.835 27.3792 212.581 27.7419C212.324 28.1013 212.13 28.5312 212.002 29.0316C211.872 29.532 211.808 30.0593 211.808 30.6134C211.808 31.1877 211.872 31.7217 212.002 32.2121C212.13 32.7024 212.317 33.1323 212.564 33.5018C212.812 33.8712 213.126 34.1634 213.504 34.3783C213.879 34.5899 214.317 34.6974 214.813 34.6974C215.308 34.6974 215.739 34.5899 216.107 34.3783C216.475 34.1634 216.786 33.8712 217.044 33.5018C217.301 33.1323 217.496 32.7024 217.623 32.2121C217.753 31.7217 217.817 31.1877 217.817 30.6134ZM221.179 30.6281C221.179 31.4979 221.045 32.351 220.781 33.1906C220.513 34.0302 220.118 34.7792 219.593 35.4441C219.071 36.1091 218.409 36.6432 217.609 37.0496C216.81 37.4559 215.876 37.6574 214.813 37.6574C213.745 37.6574 212.812 37.4559 212.016 37.0496C211.216 36.6432 210.554 36.1092 210.029 35.4442C209.507 34.7792 209.112 34.0302 208.844 33.1906C208.58 32.351 208.446 31.4979 208.446 30.6281C208.446 29.7616 208.58 28.9152 208.844 28.0823C209.112 27.2527 209.507 26.5105 210.029 25.8556C210.554 25.2007 211.216 24.6767 212.016 24.2805C212.812 23.8841 213.745 23.6826 214.813 23.6826C215.876 23.6826 216.806 23.8842 217.596 24.2805C218.385 24.6767 219.048 25.2007 219.58 25.8556C220.115 26.5105 220.513 27.2527 220.781 28.0823C221.045 28.9152 221.179 29.7616 221.179 30.6281Z" fill="#D7D7DB"/>
<path d="M231.446 26.9492C230.787 26.6906 230.175 26.5596 229.606 26.5596C229.024 26.5596 228.519 26.6739 228.1 26.8955C227.679 27.117 227.331 27.416 227.057 27.7955C226.782 28.175 226.578 28.6016 226.441 29.0751C226.304 29.5453 226.234 30.0323 226.234 30.5327C226.234 31.0869 226.294 31.6175 226.414 32.128C226.531 32.6352 226.715 33.0819 226.963 33.4614C227.207 33.8409 227.518 34.1465 227.893 34.3782C228.268 34.6066 228.713 34.7242 229.225 34.7242C229.646 34.7242 230.074 34.6067 230.512 34.3782C230.951 34.1465 231.262 33.8711 231.446 33.5588L231.446 26.9492ZM231.72 37.3505L231.583 36.3296C231.272 36.6788 230.86 36.9878 230.345 37.2531C229.833 37.5218 229.228 37.6562 228.532 37.6562C227.619 37.6562 226.809 37.4614 226.117 37.0751C225.417 36.6889 224.832 36.1717 224.357 35.5269C223.882 34.8821 223.517 34.1331 223.27 33.2834C223.025 32.437 222.902 31.5504 222.902 30.6268C222.902 29.7603 223.029 28.9106 223.283 28.081C223.541 27.2515 223.929 26.5093 224.451 25.8543C224.976 25.1994 225.628 24.6755 226.418 24.2792C227.204 23.8829 228.131 23.6813 229.191 23.6813C229.887 23.6813 230.64 23.8122 231.446 24.0676V18.8955H234.861V37.3505H231.72Z" fill="#D7D7DB"/>
<path d="M244.483 31.097C244.115 31.1165 243.733 31.1509 243.345 31.1945C242.957 31.2415 242.589 31.302 242.238 31.3758C241.495 31.5235 240.984 31.7755 240.696 32.1349C240.412 32.4976 240.268 32.8872 240.268 33.3137C240.268 33.7537 240.428 34.1097 240.753 34.3784C241.077 34.6437 241.532 34.778 242.124 34.778C242.569 34.778 243.001 34.6873 243.416 34.5026C243.831 34.3179 244.188 34.0862 244.483 33.8108V31.097ZM244.757 37.3405L244.623 36.343C244.252 36.7528 243.784 37.0752 243.212 37.3069C242.64 37.5387 242.014 37.6562 241.332 37.6562C240.759 37.6562 240.207 37.5587 239.686 37.364C239.157 37.1727 238.692 36.8938 238.287 36.5345C237.882 36.1751 237.555 35.7352 237.307 35.2078C237.056 34.6806 236.932 34.0861 236.932 33.4211C236.932 32.7595 237.059 32.1718 237.32 31.6646C237.578 31.1575 237.926 30.7309 238.371 30.3783C238.812 30.029 239.321 29.7436 239.893 29.5219C240.462 29.3004 241.064 29.1323 241.689 29.0215C242.131 28.9308 242.616 28.8635 243.141 28.8165C243.667 28.7694 244.105 28.7292 244.456 28.6922V28.4975C244.456 27.7586 244.269 27.2346 243.887 26.9189C243.509 26.6066 242.987 26.4488 242.325 26.4488C241.937 26.4488 241.566 26.4958 241.214 26.5899C240.863 26.6805 240.552 26.7948 240.274 26.9324C239.997 27.0735 239.752 27.2112 239.538 27.3489C239.328 27.4866 239.157 27.6108 239.027 27.7217L237.896 25.317C238.043 25.1861 238.267 25.0315 238.572 24.8468C238.876 24.6621 239.241 24.4807 239.676 24.306C240.107 24.1313 240.592 23.9836 241.134 23.8627C241.676 23.7418 242.262 23.6814 242.884 23.6814C243.62 23.6814 244.292 23.7789 244.898 23.9736C245.503 24.1683 246.028 24.4707 246.47 24.8871C246.908 25.3002 247.253 25.8242 247.504 26.4623C247.751 27.097 247.875 27.8661 247.875 28.7695V37.3405H244.757Z" fill="#D7D7DB"/>
<path d="M258.433 21.9383C258.323 21.8847 258.109 21.804 257.788 21.7031C257.463 21.6025 257.038 21.552 256.503 21.552C256.028 21.552 255.626 21.6966 255.305 21.9819C254.984 22.2674 254.824 22.7342 254.824 23.3791V24.0138H257.691V26.7813H254.85V37.3505H251.431V26.7813H249.668V24.0138H251.431V23.2951C251.431 22.4286 251.542 21.6965 251.762 21.0953C251.983 20.4975 252.291 20.0071 252.686 19.631C253.081 19.2515 253.546 18.9727 254.078 18.7981C254.613 18.6233 255.192 18.5361 255.817 18.5361C256.643 18.5361 257.326 18.6133 257.868 18.7713C258.41 18.9292 258.728 19.0332 258.818 19.0903L258.433 21.9383Z" fill="#D7D7DB"/>
<path d="M267.75 30.6134C267.75 30.0593 267.683 29.532 267.556 29.0316C267.429 28.5312 267.235 28.1013 266.977 27.7419C266.72 27.3792 266.409 27.0937 266.041 26.8821C265.673 26.6672 265.241 26.5597 264.746 26.5597C264.251 26.5597 263.816 26.6672 263.451 26.8821C263.083 27.0937 262.769 27.3792 262.511 27.7419C262.257 28.1013 262.063 28.5312 261.933 29.0316C261.805 29.532 261.742 30.0593 261.742 30.6134C261.742 31.1877 261.805 31.7217 261.933 32.2121C262.063 32.7024 262.25 33.1323 262.498 33.5018C262.745 33.8712 263.06 34.1634 263.435 34.3783C263.813 34.5899 264.251 34.6974 264.746 34.6974C265.241 34.6974 265.673 34.5899 266.041 34.3783C266.409 34.1634 266.72 33.8712 266.977 33.5018C267.235 33.1323 267.429 32.7024 267.556 32.2121C267.683 31.7217 267.75 31.1877 267.75 30.6134ZM271.112 30.6281C271.112 31.4979 270.979 32.351 270.711 33.1906C270.447 34.0302 270.052 34.7792 269.527 35.4441C269.005 36.1091 268.342 36.6432 267.543 37.0496C266.743 37.4559 265.81 37.6574 264.746 37.6574C263.679 37.6574 262.745 37.4559 261.949 37.0496C261.15 36.6432 260.487 36.1092 259.962 35.4442C259.44 34.7792 259.045 34.0302 258.778 33.1906C258.51 32.351 258.38 31.4979 258.38 30.6281C258.38 29.7616 258.51 28.9152 258.778 28.0823C259.045 27.2527 259.44 26.5105 259.962 25.8556C260.487 25.2007 261.15 24.6767 261.949 24.2805C262.745 23.8841 263.679 23.6826 264.746 23.6826C265.81 23.6826 266.74 23.8842 267.529 24.2805C268.319 24.6767 268.981 25.2007 269.513 25.8556C270.048 26.5105 270.447 27.2527 270.711 28.0823C270.978 28.9152 271.112 29.7616 271.112 30.6281Z" fill="#D7D7DB"/>
<path d="M281.721 37.3506V29.7436C281.721 28.7293 281.51 27.9434 281.088 27.3893C280.663 26.8384 280.078 26.5597 279.322 26.5597C278.79 26.5597 278.298 26.6974 277.85 26.9761C277.398 27.2515 277.007 27.5572 276.676 27.8897V37.3506H273.26V24.0139H276.375L276.538 25.0652C277.074 24.6252 277.673 24.2826 278.345 24.0442C279.014 23.8024 279.69 23.6848 280.369 23.6848C281.068 23.6848 281.71 23.7889 282.299 24.0005C282.888 24.2155 283.393 24.5513 283.815 25.0114C284.24 25.4715 284.564 26.0727 284.795 26.8082C285.022 27.5471 285.14 28.4337 285.14 29.4648V37.3506H281.721Z" fill="#D7D7DB"/>
<path d="M295.771 29.0786C295.734 28.6184 295.637 28.2154 295.48 27.8762C295.323 27.5336 295.129 27.2582 294.898 27.0466C294.667 26.8317 294.42 26.6772 294.152 26.5731C293.881 26.4724 293.61 26.422 293.332 26.422C292.74 26.422 292.178 26.6435 291.643 27.087C291.108 27.5303 290.793 28.1919 290.7 29.0786H295.771ZM290.619 31.5403C290.693 32.6654 291.041 33.4782 291.67 33.9753C292.295 34.4723 293.108 34.7242 294.102 34.7242C294.564 34.7242 294.998 34.6806 295.403 34.5999C295.808 34.5161 296.169 34.4118 296.484 34.2809C296.798 34.1532 297.066 34.0223 297.287 33.8946C297.508 33.7638 297.671 33.6428 297.785 33.5319L298.695 36.3295C298.565 36.4202 298.357 36.5445 298.073 36.7024C297.789 36.8603 297.434 37.0046 297.012 37.1457C296.591 37.2834 296.092 37.4009 295.524 37.505C294.955 37.6057 294.329 37.6561 293.65 37.6561C292.784 37.6561 291.964 37.5184 291.181 37.243C290.402 36.9643 289.716 36.5344 289.131 35.9534C288.542 35.3724 288.073 34.6503 287.726 33.7838C287.374 32.9173 287.2 31.8829 287.2 30.6839C287.2 29.5587 287.361 28.5613 287.682 27.6948C288.003 26.8283 288.445 26.0994 289.004 25.5084C289.566 24.9206 290.218 24.4672 290.961 24.1515C291.707 23.8392 292.499 23.6813 293.346 23.6813C294.192 23.6813 294.972 23.8224 295.691 24.0978C296.407 24.3732 297.026 24.8031 297.551 25.3841C298.073 25.9651 298.488 26.7174 298.789 27.641C299.093 28.5613 299.244 29.6595 299.244 30.9324V31.5403L290.619 31.5403Z" fill="#D7D7DB"/>
</g>
<defs>
<clipPath id="clip0_8_261">
<rect width="77" height="52" fill="white" transform="translate(0 4)"/>
</clipPath>
<clipPath id="clip1_8_261">
<rect width="149" height="37" fill="white" transform="translate(151 11.5)"/>
</clipPath>
</defs>
</svg>
