<svg width="300" height="60" viewBox="0 0 300 60" fill="none" xmlns="http://www.w3.org/2000/svg">
<g clip-path="url(#clip0_8_436)">
<path d="M59.1607 41.3829C52.6976 41.3829 47.4391 36.2766 47.4391 29.9996C47.4391 23.7226 52.6968 18.6171 59.1607 18.6171C65.6247 18.6171 70.8799 23.7234 70.8799 30.0004C70.8799 36.2774 65.6231 41.3829 59.1607 41.3829ZM59.1607 22.7252C55.0301 22.7252 51.6659 25.989 51.6659 30.0004C51.6659 34.0118 55.0261 37.274 59.1575 37.274C63.289 37.274 66.6483 34.0126 66.6483 30.0004C66.6483 25.9882 63.2842 22.726 59.1575 22.726" fill="#D7D7DB"/>
<path d="M28.0073 27.9892H43.4919C44.6245 27.9892 44.6245 31.9694 43.4919 31.9694H28.0073C26.8763 31.9694 26.8763 27.9892 28.0073 27.9892Z" fill="#D7D7DB"/>
<path d="M27.469 21.0863L42.8127 19.0744C43.934 18.9284 44.4835 22.8743 43.3613 23.0218L28.0185 25.0314C26.8971 25.1789 26.3468 21.2323 27.4698 21.0848" fill="#D7D7DB"/>
<path d="M27.469 38.9137L42.8127 40.9256C43.934 41.0723 44.4835 37.1273 43.3613 36.9782L28.0185 34.967C26.8971 34.8203 26.3468 38.7677 27.4698 38.9144" fill="#D7D7DB"/>
<path d="M13.7394 20.2247V40.0359C13.7394 41.1387 9.65436 41.1387 9.65436 40.0359V20.2247C9.65436 19.1228 13.7394 19.1228 13.7394 20.2247Z" fill="#D7D7DB"/>
<path d="M20.5141 19.6706L23.267 39.3226C23.4176 40.4152 19.3671 40.9514 19.2157 39.8572L16.4627 20.206C16.3113 19.1134 20.3627 18.5773 20.5141 19.6706Z" fill="#D7D7DB"/>
<path d="M2.87725 19.6706L0.124275 39.3226C-0.0263078 40.416 4.02346 40.9521 4.17484 39.8595L6.92782 20.2084C7.0784 19.1158 3.02783 18.5796 2.87645 19.673" fill="#D7D7DB"/>
</g>
<g clip-path="url(#clip1_8_436)">
<path d="M256.935 23.7938C253.935 23.7938 251.897 26.0976 252.242 31.0262C252.424 33.5743 253.274 34.8868 254.911 34.8868C256.548 34.8868 257.757 33.2532 257.757 33.2532L258.22 23.8706C257.794 23.812 257.364 23.7863 256.935 23.7938ZM253.591 43.683C256.113 43.683 257.272 42.2379 257.412 39.8015L257.574 36.8276H257.532C257.049 37.5209 256.403 38.0863 255.65 38.4745C254.897 38.8627 254.06 39.0618 253.211 39.0545C249.811 39.0545 247.689 36.1923 247.366 31.6266C246.762 23.2004 251.511 19.4585 258.508 19.4585C260.105 19.4256 261.7 19.5874 263.257 19.9402L262.302 38.5659L262.218 39.5851C261.951 44.2974 259.801 47.9625 254.096 48.0323H254.054C248.722 47.9555 247.893 45.4004 247.781 43.0617V41.4281H247.977C248.707 42.1584 249.578 42.7337 250.538 43.1189C251.498 43.5041 252.527 43.6913 253.562 43.6691L253.591 43.683ZM270.543 38.5659L270.774 33.5674L271.477 19.9402C269.88 19.5952 268.249 19.4359 266.615 19.4655L265.786 35.3615C265.688 37.1836 266.96 38.5659 269.053 38.5659H270.543ZM266.721 14.5787C266.779 13.8106 267.125 13.0922 267.691 12.5659C268.257 12.0397 269.002 11.744 269.777 11.7374C270.148 11.727 270.516 11.7948 270.859 11.9363C271.201 12.0777 271.51 12.2896 271.764 12.558C272.018 12.8264 272.212 13.1452 272.333 13.4935C272.455 13.8417 272.5 14.2116 272.468 14.5787C272.4 15.3526 272.047 16.0744 271.477 16.6053C270.906 17.1363 270.158 17.4389 269.376 17.4549C269.007 17.4543 268.642 17.3776 268.304 17.2297C267.967 17.0818 267.663 16.8658 267.414 16.5955C267.164 16.3252 266.974 16.0064 266.855 15.6593C266.735 15.3122 266.69 14.9442 266.721 14.5787ZM283.427 23.7938C280.427 23.7938 278.39 26.0976 278.741 31.0262C278.917 33.5674 279.767 34.8798 281.411 34.8798C283.055 34.8798 284.256 33.2532 284.256 33.2532L284.699 23.8776C284.273 23.8137 283.843 23.7857 283.413 23.7938M283.996 36.8276C283.513 37.5209 282.867 38.0863 282.114 38.4745C281.361 38.8627 280.524 39.0618 279.676 39.0545C276.275 39.0545 274.154 36.1923 273.837 31.6196C273.24 23.2004 277.975 19.4655 284.973 19.4655C286.571 19.4335 288.168 19.5929 289.729 19.9402L288.766 38.5589H287.228C286.589 38.6019 285.952 38.4616 285.391 38.1546C284.831 37.8477 284.371 37.387 284.066 36.8276H283.996ZM240.896 38.5589H239.371C237.207 38.5589 235.908 37.1208 236.013 35.2359L236.8 19.9402C238.307 19.6296 239.842 19.4776 241.381 19.4864L241.247 22.0415H241.289C241.967 21.1552 242.849 20.4439 243.862 19.9676C244.874 19.4913 245.987 19.264 247.106 19.3049L246.867 23.9125C244.549 23.9125 243.003 24.3104 241.57 25.8253L240.868 38.5589M208.825 35.2359C208.713 37.1208 210.041 38.5589 212.204 38.5589H213.743L214.319 27.3891C214.621 21.8042 212.45 19.3049 207.504 19.3049C204.175 19.3848 200.998 20.7113 198.61 23.0189L197.95 35.2359C197.845 37.1208 199.165 38.5589 201.329 38.5589H202.854L203.556 25.0504C204.413 24.1959 205.574 23.7096 206.788 23.696C209.598 23.696 209.275 26.6351 209.275 26.6351L208.825 35.2359ZM188.663 23.1725C186.555 23.1725 184.96 25.0294 184.721 27.2076L184.651 27.8428H186.604C190.735 27.8428 191.712 27.3472 191.803 26.0138C191.922 24.1219 190.679 23.1725 188.663 23.1725ZM187.328 31.1798H184.468C184.637 33.5674 186.576 35.0753 189.126 35.0753C190.953 35.0753 193.124 34.6913 194.62 33.2881H194.775L194.676 34.7611C194.522 37.1906 192.871 39.0476 188.051 39.0476C183.696 39.0476 179.67 35.3266 180.021 29.5253C180.436 23.2423 184.272 19.2351 189.288 19.2351C192.934 19.2351 196.137 22.0276 195.842 26.5793C195.618 30.0698 193.103 31.1798 187.307 31.1798M223.066 27.5077C223.699 28.0707 224.458 28.4768 225.28 28.6928C226.101 28.9088 226.963 28.9285 227.794 28.7504C228.763 28.506 229.817 27.5147 229.761 26.5025C229.704 25.4902 228.84 25.0225 227.506 25.0225C226.604 25.0319 225.714 25.228 224.892 25.5982C224.071 25.9684 223.337 26.5046 222.735 27.1726L223.066 27.5077ZM232.775 35.8851C232.775 35.8851 232.775 36.9602 232.711 37.1836C232.191 39.976 229.473 41.2396 226.227 41.2396C224.892 41.2386 223.572 40.9584 222.353 40.4171C221.134 39.8759 220.044 39.0858 219.152 38.0981C218.369 37.2561 217.765 36.2656 217.376 35.1859C216.988 34.1063 216.822 32.9598 216.89 31.8151C216.911 30.0385 217.362 28.293 218.204 26.7259C217.847 25.4272 217.78 24.0667 218.007 22.7396C218.403 20.4353 219.545 18.3225 221.26 16.7219C223.245 14.8233 225.863 13.7153 228.616 13.6083C230.165 13.5376 231.705 13.8722 233.084 14.5787C233.743 14.9262 234.331 15.3925 234.819 15.954C235.006 16.1202 235.127 16.3472 235.16 16.5942C235.194 16.8411 235.137 17.0919 235.002 17.3013C234.88 17.4158 234.729 17.4947 234.566 17.5292C234.402 17.5637 234.232 17.5525 234.074 17.4968C232.882 17.0858 231.639 16.8391 230.379 16.7638C228.547 16.7641 226.759 17.3167 225.25 18.3485C223.749 19.3304 222.634 20.7978 222.096 22.5023C223.776 21.3573 225.757 20.7285 227.794 20.6942C228.588 20.6764 229.377 20.824 230.111 21.1274C230.845 21.4308 231.506 21.8834 232.053 22.456C232.601 23.0287 233.021 23.7087 233.288 24.4525C233.555 25.1962 233.662 25.9873 233.603 26.7747C233.546 28.3582 232.93 29.8709 231.861 31.0472C231.249 31.7472 230.494 32.3097 229.646 32.6973C228.798 33.0849 227.877 33.2887 226.944 33.2951C224.799 33.3404 222.714 32.5942 221.091 31.2008C221.056 35.2917 224.976 37.5885 227.527 37.5745C229.227 37.5745 231.341 37.0789 232.634 35.8362L232.775 35.8851Z" fill="#D7D7DB"/>
</g>
<defs>
<clipPath id="clip0_8_436">
<rect width="71" height="23" fill="white" transform="translate(0 18.5)"/>
</clipPath>
<clipPath id="clip1_8_436">
<rect width="130" height="37" fill="white" transform="translate(170 11.5)"/>
</clipPath>
</defs>
</svg>
