<svg width="300" height="60" viewBox="0 0 300 60" fill="none" xmlns="http://www.w3.org/2000/svg">
<path d="M35.2513 27.3254C40.9415 27.3254 45.5553 22.7005 45.5553 16.9944C45.5553 11.2893 40.9415 6.66336 35.2513 6.66336C29.5611 6.66336 24.9473 11.2893 24.9473 16.9944C24.9473 22.7005 29.5611 27.3254 35.2513 27.3254Z" fill="#D7D7DB"/>
<path d="M42.8512 25.3524C40.8876 27.4874 37.4272 29.6214 32.9845 29.6214C29.5379 29.6214 26.5708 28.2785 24.6832 26.7863C13.4338 27.9682 5.06696 29.6468 5.06696 29.6468V34.2145L64.748 34.2081V24.79C64.748 24.79 54.5221 24.7275 42.8512 25.3524Z" fill="#D7D7DB"/>
<path d="M12.1567 47.5691V53.1344H5.06696V38.3289H12.1567V44.9913H12.1979L16.3702 38.3289H24.8723L18.6476 45.9805L24.5195 53.1344H16.4083L12.2053 47.5691H12.1567Z" fill="#D7D7DB"/>
<path d="M64.7512 52.5233C63.0791 53.0348 60.8788 53.3366 58.911 53.3366C51.8983 53.3366 46.7468 51.3382 46.7468 45.5241C46.7468 40.2701 51.7378 37.9879 58.5624 37.9879C60.4584 37.9879 62.8678 38.1986 64.7512 38.8012L64.7491 43.8899C63.3526 43.0416 61.9562 42.5142 59.9567 42.5142C57.354 42.5142 54.7534 43.7978 54.7534 45.6638C54.7534 47.5331 57.3424 48.8135 59.9567 48.8135C61.9235 48.8135 63.3526 48.267 64.7491 47.4589L64.7512 52.5233Z" fill="#D7D7DB"/>
<path d="M33.1229 44.6037H36.6551C38.0198 44.6037 38.5533 44.0499 38.5533 43.1994C38.5533 42.2241 38.0146 41.738 36.7534 41.738H33.1229V44.6037ZM33.1229 50.1245H36.8199C38.2057 50.1245 38.6779 49.5474 38.6779 48.698C38.6779 47.8487 38.2005 47.2386 36.8357 47.2386H33.1229V50.1245ZM26.0331 38.3289H40.3648C44.0882 38.3289 45.3082 39.7798 45.3082 42.0398C45.3082 44.5698 43.053 45.6681 40.7377 45.793V45.8354C43.1164 46.0207 45.4328 46.2919 45.4328 49.2773C45.4328 51.226 44.2118 53.1344 40.1176 53.1344H26.0331V38.3289Z" fill="#D7D7DB"/>
<g clip-path="url(#clip0_8_449)">
<path fill-rule="evenodd" clip-rule="evenodd" d="M231.901 35.3054C232.712 35.3054 233.472 35.5829 234.028 35.9644V34.1254C233.608 33.9162 232.696 33.6547 231.508 33.6547C228.593 33.6547 227.396 35.4072 227.396 37.6339V47.9933H230.3V40.1339H232.348V38.4728H230.301V37.1632C230.301 36.092 230.89 35.2928 231.902 35.297M220.523 38.0586C222.09 38.0481 222.758 39.4533 222.788 42.406C222.818 45.3231 222.153 46.6495 220.523 46.6495C218.894 46.6495 218.267 45.3231 218.267 42.406C218.267 39.3466 218.897 38.0683 220.523 38.0586ZM220.543 48.3099C223.294 48.3099 225.86 46.715 225.844 42.3997C225.823 38.0586 223.513 36.3786 220.543 36.4023C217.705 36.4163 215.199 38.0621 215.206 42.3997C215.22 46.7359 217.798 48.3099 220.543 48.3099ZM182.065 44.7742C182.065 43.4618 183.324 42.8007 184.607 42.4367L186.075 42.0622V45.5839C185.711 45.9172 184.775 46.4124 183.772 46.4124C182.691 46.4124 182.07 45.8677 182.065 44.7742ZM186.285 47.1913L186.485 47.9807H189.218C189.078 47.5316 188.959 46.6822 188.959 45.6236V40.0224C188.959 36.7217 186.492 36.4149 184.322 36.4149C180.627 36.4149 179.635 38.4149 179.635 39.9206L182.289 39.9157C182.294 38.6304 183.28 37.9609 184.367 37.9609C185.264 37.9609 186.081 38.3654 186.081 39.8146V40.5224L182.649 41.3474C180.542 41.8495 179.071 42.8955 179.083 45.0616C179.09 47.1997 180.554 48.3224 182.724 48.3224C184.683 48.3197 185.915 47.4507 186.278 47.2032M171.88 46.42H170.849V41.2567H171.88C173.479 41.2525 174.609 42.0008 174.637 43.7282C174.647 45.4605 173.783 46.42 171.88 46.42ZM170.849 35.5425H171.638C172.973 35.5376 174.086 35.9609 174.084 37.5104C174.081 39.0461 173.136 39.6758 171.625 39.6737H170.856V35.5355L170.849 35.5425ZM177.973 43.9374C177.973 41.3948 175.692 40.3857 174.205 40.3111C175.695 39.9882 177.237 39.2148 177.237 37.092C177.237 34.8842 175.467 33.9846 173.491 33.9797H167.712V47.9933H172.868C175.638 48.0024 177.973 46.6934 177.973 43.9374Z" fill="#D7D7DB"/>
<path fill-rule="evenodd" clip-rule="evenodd" d="M197.584 40.8243V47.9947H200.464V40.6723C200.464 38.8592 200.149 36.4072 196.9 36.4072C195.375 36.4072 194.073 37.265 193.637 37.5425V36.7057H190.756V47.9877H193.637V39.3124C194.093 38.9463 194.916 38.3445 195.835 38.3445C197.248 38.3445 197.588 39.1813 197.584 40.8174M202.271 33.9671V47.9877H205.17V33.9741L202.271 33.9671Z" fill="#D7D7DB"/>
<path fill-rule="evenodd" clip-rule="evenodd" d="M208.162 41.5166L211.823 37.1037H209.339L205.164 42.0592L208.398 48.3857H211.966L208.162 41.5166ZM253.232 41.2046C253.371 39.8692 253.773 38.0776 255.449 38.0693C257.123 38.0693 257.559 39.821 257.636 41.2046H253.232ZM255.449 36.4193C252.505 36.4228 250.137 38.2813 250.127 42.2339C250.12 46.8157 252.539 48.3275 255.449 48.3275C257.741 48.3275 259.979 47.3191 260.577 44.1956L257.559 44.1887C257.386 45.6531 256.846 46.6678 255.449 46.6643C253.699 46.6573 253.199 45.1496 253.197 42.7089H260.71C260.717 42.5453 260.719 42.3816 260.719 42.2179C260.731 38.2652 258.295 36.4186 255.451 36.4186L255.449 36.4193ZM273.765 45.6008C273.4 45.9342 272.467 46.4377 271.465 46.4377C270.383 46.4377 269.765 45.8937 269.76 44.8003C269.759 43.4871 271.02 42.8267 272.3 42.4627L273.765 42.0882V45.6099V45.6008ZM276.656 40.0268C276.656 36.7254 274.185 36.4193 272.018 36.4193C268.324 36.4193 267.317 38.4186 267.317 39.925L269.973 39.9208C269.975 38.6348 270.953 37.9653 272.052 37.9653C272.948 37.9653 273.764 38.3698 273.764 39.819V40.5268L270.356 41.3594C268.242 41.8615 266.777 42.9076 266.788 45.0736C266.801 47.2118 268.258 48.3345 270.436 48.3345C272.393 48.3324 273.625 47.4642 273.983 47.2152L274.184 48.0033H276.918C276.78 47.5549 276.663 46.7048 276.663 45.6462V40.0323L276.656 40.0268ZM262.317 47.9984H265.217V33.9792H262.317V47.9984ZM284.726 36.4193C283.201 36.4193 281.898 37.277 281.461 37.5546V36.7178H278.583V48.0012H281.461V39.3231C281.922 38.9577 282.741 38.3552 283.659 38.3552C285.072 38.3552 285.41 39.192 285.41 40.828V47.9984H288.289V40.676C288.289 38.8629 287.978 36.4109 284.726 36.4109M297.398 45.3344C297.185 45.704 296.261 46.5688 295.293 46.5688C294.01 46.5688 292.911 45.8484 292.917 42.3274C292.924 38.964 294.079 38.2038 295.271 38.2038C296.291 38.2038 297.125 38.9535 297.398 39.4061L297.398 45.3344ZM297.398 37.4821C296.792 36.9416 295.849 36.436 294.505 36.4444C292.76 36.4444 289.849 37.4319 289.843 42.3351C289.832 47.0186 292.147 48.3415 294.332 48.3345C296.054 48.3206 297.288 47.2501 297.398 47.1546V48.0054H300.301V33.9792H297.398V37.4821ZM237.712 47.9984H240.846V33.9792H237.712V47.9984ZM245.888 38.176V36.7171H242.982L242.984 47.9991H245.879V41.5484C245.879 38.7785 248.303 38.5916 249.683 38.6509V36.4521C247.461 36.194 246.134 37.5595 245.879 38.1767M240.287 13.3555C240.287 15.4769 230.972 15.7084 230.972 17.9909H230.766C230.766 15.7084 221.452 15.4769 221.452 13.3555H221.243V15.5689C221.243 18.2133 230.575 17.9651 230.758 20.5077H230.964C231.155 17.9651 240.478 18.2064 240.478 15.5689V13.3555H240.271H240.287ZM240.287 18.3793C240.287 20.5007 230.972 20.7322 230.972 23.0147H230.766C230.766 20.7322 221.453 20.5007 221.453 18.3793H221.244V20.5935C221.244 23.2379 230.575 22.9896 230.759 25.5322H230.964C231.155 22.9896 240.479 23.2309 240.479 20.5935V18.3793H240.271H240.287ZM240.287 23.4045C240.287 25.5259 230.972 25.7568 230.972 28.04H230.766C230.766 25.7568 221.453 25.5259 221.453 23.4045H221.244V25.6187C221.244 28.2687 230.575 28.0148 230.759 30.5575H230.964C231.155 28.0148 240.479 28.2561 240.479 25.6187V23.4045H240.271H240.287Z" fill="#D7D7DB"/>
</g>
<defs>
<clipPath id="clip0_8_449">
<rect width="133" height="37" fill="white" transform="translate(167 11.5)"/>
</clipPath>
</defs>
</svg>
